<svg version="1" xmlns="http://www.w3.org/2000/svg" width="1042.667" height="1042.667" viewBox="0 0 782.000000 782.000000"><path d="M386.2 42.2c-.7.7-1.2 2-1.2 3s-.6 1.8-1.2 1.8c-2.9 0-11.6 5-15.6 8.9-6.7 6.6-11.8 15.2-15.8 26.8-1.3 3.9-2.9 6-6.3 8.7-2.5 1.9-5.8 4.5-7.3 5.8-1.5 1.3-4.3 3.6-6.4 5.3-2 1.6-4.2 3.5-4.8 4-5.9 5.6-12.7 7.9-23.2 7.9-7.6.1-8.5.3-13.3 3.6-5.7 3.9-9.9 10.8-10.3 17-.1 2.4-1.9 6-5.5 11.1-2.9 4.2-5.3 8.2-5.3 8.8 0 .6-.4 1.1-1 1.1-.5 0-1 .9-1 1.9 0 1.1-.4 2.1-.8 2.3-1.5.6-10.8 24.8-9.5 24.8.3 0 0 .7-.7 1.5-.7.9-1 1.8-.7 2.2.4.3.2 1.2-.4 2-.6.7-.9 1.3-.6 1.3.3 0 .1 1.5-.4 3.2-.5 1.8-1.2 5.5-1.5 8.3-.3 2.7-.8 5.7-1 6.5-.3.8-.7 5.3-1 10-1.2 22.2-1.5 24.5-3.6 28.4-.6 1.2-1.1 2.3-1 2.6.4 1.2-2.3 8.1-6.8 17.5-7.1 14.7-15.8 23.2-24.2 23.6-3.5.2-9.3-1.1-9.6-2.2-.2-.5-1-.9-1.7-.9-1.4 0-15.5-13.4-15.5-14.8 0-.4-1.7-2.5-3.8-4.7-2.1-2.2-6.7-7.4-10.2-11.5-3.5-4.1-6.6-7.7-6.9-8-.3-.3-3.1-3.4-6.1-7-3-3.6-6.1-7.2-7-8.1-.8-.9-3.1-3.6-5.2-6-2-2.4-4.4-5.3-5.5-6.5-1-1.2-3.8-4.5-6.3-7.4-2.5-2.9-5.2-6-6-6.9-.9-.9-4-4.5-7-8.1-3-3.6-6.5-7.5-7.8-8.8-4.6-4.4-5-6.2-4.6-24 .3-17.9.6-21.1 3.1-31.2 2-8.3 4.7-13.7 7.3-14.5 2.5-.8 7.3-5.8 7.7-8.2 1.7-9.3-2.2-15.4-10.7-17-1.3-.2-2.6-.6-2.9-.8-.8-.9-8.2 3.7-9.7 6-2.2 3.4-3.3 8.6-2.2 11.4.5 1.5.4 2.8-.3 3.7-.6.8-.8 1.4-.4 1.4.5 0 .1.8-.7 1.7-2.5 3.1-6.6 12.9-8.9 21.7-2.2 8.6-1.4 27.9 1.4 32.3.5.8.4 1.3-.2 1.3-.6 0-1.1-.3-1.1-.8 0-.4-1-1.8-2.2-3.2-1.3-1.4-6.1-6.8-10.8-12-4.7-5.2-9.4-10.4-10.5-11.6-9.4-9.9-9.4-10-9-14.5.4-5.5-1.4-9.9-5.1-12.4-3.5-2.3-4.9-2.7-9.2-2.6-3.7 0-10.2 4.3-10.2 6.7 0 .7-.4 1.4-.9 1.4-.7 0-.8 4.2-.2 9.8.2 2.2 5.6 7 8.6 7.8 2.7.7 8.6 6.2 12.4 11.6.7 1.1 2.5 3.2 4 4.7 1.4 1.5 4 4.4 5.6 6.5 1.7 2.1 4.2 5.3 5.7 7 6.4 7.2 8.8 10.1 8.8 10.9 0 .6-3 2.1-13.5 6.7-6.5 2.8-15.9 5.3-22 5.7-6.9.5-7 .4-8.3-2.4-2.8-6.3-11.8-9-17.9-5.3-14.3 8.7-3.9 29.6 11.7 23.4 2.2-.9 4-2 4-2.4 0-.4 8.7-.7 19.2-.6 18 .1 23.7-.3 31.3-1.9 2.9-.6 3.4-.2 11.5 10.5 4.7 6.2 9 11.7 9.5 12.3.6.7 2.6 3.2 4.5 5.7 4.5 5.8 4.7 6.1 6.8 8.7.9 1.2 4.9 6.3 8.7 11.3 3.9 5.1 12.3 16 18.8 24.3 6.5 8.4 13.4 17.4 15.5 20.1 2 2.7 4.4 5.7 5.3 6.6.9 1 2.5 3.7 3.5 6.1 4.8 11.3 13.2 26.4 17 30.5.6.7 2.1 2.5 3.5 4 8.5 10.1 21.1 16.6 31.9 16.6 7.2 0 18.3-3.9 24.7-8.8 1.8-1.4 3.3-2.3 3.3-2 0 .3 2.1-1.5 4.8-3.9 5-4.7 6.9-5.6 5.7-2.8-1.2 2.9-5.4 20.4-6.1 25.3-.3 2.5-.7 4.7-.9 5-.3.5-1.3 7.7-2.2 15.5-.7 6.7-.7 33.6 0 41 .5 5.8 3.5 20.9 5.1 26.5 1.7 5.9 8.4 21.9 9.6 23 .3.3 1.4 2.1 2.4 4 1.1 1.9 4.1 6.3 6.8 9.8l4.9 6.3-5.8-2.9c-3.2-1.6-11.4-5.2-18.3-8.2-16.5-6.9-15.9-6.7-20.5-8.1-2.2-.6-4.9-1.6-6-2.1-2.4-1-20.6-5.7-25.2-6.4-7.2-1.2-17.6-2-21.1-1.7-9.7.8-15.2 2.3-20.9 5.9-8.9 5.6-13.8 15.8-14.2 29-.2 7.1 2.3 16 7.9 28.1 1.1 2.4 2 4.5 2 4.9 0 .3 3.4 7.5 7.5 16s7.5 15.8 7.5 16.3.4 1.1.9 1.3c.5.1 2 2.5 3.5 5.3 2.8 5.4 3.5 6.5 8.1 13.5 9.9 14.9 20.5 25.6 28.6 29.1 3.8 1.7 4.6 2.4 4.4 4.6-.1 3.5-3.8 7.3-7.1 7.3-2.8 0-13.6-5-16.1-7.5-.7-.8-2.7-2.2-4.3-3.2-1.7-.9-3-2.1-3-2.5 0-.4-.4-.8-.9-.8-.9 0-7.9-6.2-18.5-16.3-2.7-2.6-5.3-4.7-5.7-4.7-.4 0-1.4-.6-2.1-1.2-.7-.7-3.6-3-6.3-5-6.9-5.2-10.6-8-12.6-9.8-1-.8-7-14.1-13.4-29.4l-11.6-27.9 2.5-2.2c3-2.6 5.6-8.3 5.1-11.1-.2-1-.4-2.6-.4-3.4-.1-2-4-6.4-7.1-8-3.5-1.9-9.7-1.4-13.1 1.1-6 4.3-7.6 11.7-3.7 17.9 1.7 2.8 2.2 5.2 2.3 11.7.1 9.6 1.4 10-12.7-4-9.1-9.1-11.1-11.7-9-11.7 1.2 0 3.2-6.2 3.2-10.2 0-3.2-2.6-8-5.5-10-2.5-1.9-7.7-2.6-11.2-1.6-4.5 1.2-7.2 3.8-8.8 8.4-1.8 5.2-.7 9.2 3.5 13.4 2.6 2.6 4.4 5.8 6 10.6 1.2 3.8 2.4 7.6 2.7 8.4.3.8.7 1.9.9 2.5.2.5 1.6 4.7 3.2 9.3 2 5.8 2.5 8.1 1.6 7.8-1.8-.7-12.8-8.9-13.2-9.9-.2-.4-.9-.7-1.5-.7-.7 0-2.4-1.1-3.9-2.5s-3-2.5-3.4-2.5c-.4 0-2.6-1.6-5-3.5-2.3-1.9-4.5-3.5-4.8-3.5-.3 0-1.4-.6-2.3-1.4-7.9-6.4-8-6.6-7.6-8.9.7-3.4-2.2-8.4-6-10.7-9.1-5.6-20.9 1.4-20 11.9.6 7.2 5.6 11.9 13.3 12.6 1.7.1 3.9 1.3 5 2.5 1.7 1.9 15.6 16.7 30.3 32.2 2.6 2.8 4.6 5.1 4.5 5.2-.2 0-1.8.9-3.6 1.8-1.9 1-3.9 1.8-4.6 1.8-.7 0-2.6.6-4.2 1.4-2.5 1.2-17 6.8-18.4 7.2-.3 0-2.3.9-4.5 2-2.8 1.3-5.9 1.8-10.4 1.7-3.5-.1-7.8.4-9.6 1.1C3 595.3-.3 601 .3 606c1.8 15.8 22.8 16.9 26.1 1.3.8-3.6 2.5-4.5 16.1-9.1 15.6-5.2 29.4-6.4 35.6-3.2 2.7 1.4 11.7 7.8 13.7 9.7.7.7 1.7 1.3 2 1.3.4 0 1.8 1 3.2 2.3 1.4 1.2 7.7 6 14 10.7 6.3 4.6 11.7 8.7 12 9 .3.3 2.1 1.7 4 3 1.9 1.4 7.3 6.5 12 11.4 18.9 19.9 40.6 41 53 51.6 2.9 2.5 5.8 5 6.4 5.5 5.5 5.1 25.8 20.5 29.5 22.5 1.4.7 3 1.7 3.5 2.1 4.9 4.1 19.9 11.7 28.6 14.6 7.1 2.3 19.3 2.4 23.5.1 6.2-3.3 11.7-11 13.1-18.1.2-1.2.7-3.3 1-4.7 1.2-4.6 1.1-11.5-.1-15.7-.7-2.3-1.1-4.4-.8-4.7.3-.2 0-2-.6-3.8-.5-1.8-1.2-5.1-1.5-7.3-.2-2.2-.7-5.1-1-6.5-.3-1.4-.8-4.1-1.1-6-.5-3.7-1.1-7.3-2.1-13-1-5.2-1.4-8.2-1.8-11-.2-1.4-.6-3.4-.9-4.5-.3-1.1-.8-3.8-1.1-6-.8-5.8-1.8-11.7-2.2-13.7-.2-1-.6-2.7-.8-3.8-.3-1.1-.2-2 .1-2 .7 0 6.7 3.3 7.3 4.1 1 1.2 15.8 9.5 25 14 11.5 5.6 19.3 8.4 29 10.6 7.5 1.6 17.8 0 21.4-3.3 1.5-1.4 2.9-2.4 3.1-2.3.2.2.6 2.9.8 6 1.2 12.4 6.4 21.3 15.3 26.1l5.1 2.8 5-2.5c10.2-5.1 16.1-15.6 15.9-28.1-.1-3.7.2-5 1.2-4.7.6.3 1.2.9 1.2 1.4 0 .5 1.9 1.8 4.2 3 4.8 2.5 16 2.9 21.4.9 1.6-.6 2.9-1 2.9-.9 0 .1 3.2-.8 7-2 8.8-2.8 27-12 39.8-20 6.7-4.2 9.7-5.6 9.3-4.4-.3 1-.8 3.8-1.1 6.3-.4 2.4-.8 4.7-1 5-.1.3-.6 2.5-.9 5-.3 2.5-.8 5.6-1.1 7-.3 1.4-.8 4.1-1 6-.2 1.9-.7 4.6-1 6-.3 1.4-.8 4.1-1.1 6-.2 1.9-.9 5.7-1.4 8.5-.5 2.7-1.2 6.6-1.5 8.5-.6 3.9-1.6 9.5-2.1 12.5-3.4 18.2-3.6 21.4-1.2 30 2.1 7.5 4.9 12.9 8.2 15.7 1.2 1 2.7 2.2 3.4 2.8 2.2 1.9 5.4 2.4 13.7 2.3 6.4-.1 9.6-.7 15.7-3.2 8.2-3.2 16.6-7.6 23.5-12.3 2.3-1.5 4.6-2.8 5.2-2.8.6 0 1.1-.3 1.1-.8 0-.4 1.7-1.8 3.8-3.2 2-1.4 4.2-2.9 4.8-3.5.6-.5 2.2-1.7 3.4-2.5 2-1.3 19.5-15.6 22.6-18.5.6-.5 5.3-4.8 10.5-9.5 10.7-9.7 31.1-30.1 41.4-41.2 5.7-6.1 21.1-18.6 44.7-36 3-2.3 6.4-4.8 9.6-7.4 7.2-5.7 16.6-7.5 27.2-5.3 8 1.6 9.1 1.9 16.3 4.4 13.8 4.6 14.3 4.9 15.7 10 4.2 15 26.3 12 25.6-3.5-.2-5.5-2.6-9.3-7.1-11.4-3.5-1.7-10.2-1.9-11.1-.4-.3.5-1.1.5-1.7.1-.7-.4-1.4-.8-1.7-.9-.3 0-1.8-.6-3.3-1.2-1.6-.7-3.1-1.2-3.4-1.2-.3 0-1.9-.6-3.6-1.4-6.9-3-27.3-10.6-28.4-10.6-2.6 0-2-1.9 2-6.2 7.2-7.8 28.1-30 31-32.9 1.8-1.8 3.6-2.7 5-2.5 3.6.6 9.5-3.1 11.5-7.2 4.6-9.1-1.7-19.2-12-19.2-6.7 0-12.8 6.4-12.8 13.4 0 2.4-4.4 6.4-14 12.9-5.8 3.8-16.6 11.7-18 13-2.2 2-10.1 6.9-10.6 6.5-.2-.2.2-1.5.9-2.8.7-1.4 1.4-2.9 1.4-3.3.1-.4.5-2 1-3.5 2.5-6.8 3.5-9.8 3.7-10.7 2.3-9.2 4.9-14.8 8-17.5 3-2.7 4.1-5 5.2-10.7.1-.6-.7-3-1.8-5.2-4.4-9-16.9-10-22.5-1.8-3 4.3-3.1 11.4-.3 15 1.1 1.4 2 2.8 2 3.1 0 1.3-21.9 22.2-22.3 21.2-.2-.6-.3-4.3-.2-8.3 0-5.4.5-7.6 1.9-9.1 2-2.3 3.2-9.2 2.1-11.9-.5-1-.9-2.2-.9-2.7-.1-.5-1.7-2.2-3.7-3.8-12.8-10.3-29 7.9-17.4 19.5l3.6 3.6-6.1 14.8c-6.4 15.4-8.2 19.8-10.5 24.8-.7 1.6-2.6 6-4.1 9.8-1.5 3.8-3.8 7.6-5.3 8.7-1.4 1.1-4.8 3.7-7.6 5.7-2.7 2.1-5.4 4.1-6 4.5-.5.5-3.2 2.5-5.9 4.6-2.7 2-6.8 5.5-9.1 7.7-5.1 4.9-12.4 11.3-15.9 14-1.5 1.1-3.4 2.7-4.4 3.5-2.3 2.1-10.2 7.2-11.6 7.5-.6.1-2.4.7-3.9 1.3-6.2 2.6-10.4.4-11.2-5.6-.3-2.6.1-3.2 2.8-4.3 5.5-2.3 11.2-6.6 16.8-12.8 7.6-8.3 7.9-8.7 13.6-17.6 2.9-4.4 5.6-8.5 6.1-9 1.7-2.1 20.1-40.4 24-50 3.7-9.2 4.4-11 6-15.5.7-1.8.6-17.8 0-20-.3-.8-.8-2.9-1.3-4.5-.4-1.7-1.5-3.8-2.3-4.8-.8-.9-1.1-1.7-.6-1.7 1.5 0-7.8-8.1-11.7-10-11.2-5.8-29.4-5.6-52.9.5-8.3 2.2-24.3 7.6-25.4 8.6-.6.5-1.7.9-2.5.9-.9.1-3.4.9-5.6 2-2.2 1.1-4.3 1.9-4.7 2-.4 0-5.6 2.4-11.5 5.2-5.9 2.9-11.1 5.4-11.6 5.6-.4.2 1.8-2.9 4.8-7 8.1-10.7 16.2-27.5 19.1-39.3 1.5-6.2 3.6-17.8 4.1-23.5 1.3-12.8.6-41-1.3-50.4-.2-1.2-.9-4.8-1.4-8.1-1.6-9.7-2-11.6-4.5-20.8-1.2-4.8-2-8.7-1.6-8.7.3 0 2.4 1.7 4.6 3.8 9.8 9.1 22.8 15.2 33 15.5 10 .4 21.8-5.5 31.7-15.7 5-5.2 13.6-19 18-28.8 3.7-8.3 9.3-16.5 25-36.3 1-1.2 5.5-7.1 8.8-11.5 1.4-1.8 3.3-4.3 4.3-5.4.9-1.2 9-11.6 17.9-23.1 8.9-11.6 16.5-21.2 17-21.3.4-.2.8-1 .8-1.7s.4-1.5.8-1.7c.4-.2 2.8-2.9 5.2-6.1 4.9-6.2 4.3-6.1 14-4 1.4.3 11.5.6 22.5.7 18 .1 20.4.3 23 2 4.1 2.7 11.6 2.7 15.2 0 8.1-6.1 7.6-17.7-1-22.3-4.4-2.4-7.4-2.6-11.4-.9-3.5 1.6-7.3 5.4-7.3 7.5 0 2.3-12.6 1.1-22.4-2.2-9.1-3-20.6-8.2-20.6-9.1 0-.7 5-7 9.7-12.3 1.2-1.4 2.6-3.1 3.1-3.6 4.7-5.8 13.1-15.6 15.4-17.9 1.5-1.7 2.8-3.3 2.8-3.8s2.4-1.9 5.3-3.2c6.8-3 9.1-6.4 9-13.4 0-4.7-.4-5.6-3.4-8.3-6.2-5.5-13.1-5.7-18.4-.4-3.4 3.5-4.5 6.8-4 12.4.3 2.8-.3 4.1-3.5 7.5-2.1 2.3-4.8 5.2-6 6.6-3.3 3.8-14.9 16.6-20.3 22.4-2.7 2.8-4.4 4.2-3.9 3.1 4.3-8.8 3.2-30.3-2.3-43-3.9-9-5.5-12.4-6.4-13-.5-.3-.7-2-.4-3.8.7-4.8.5-7.5-1.1-10.5-1.5-2.8-5.6-7.1-5.6-5.7 0 .4-.7.2-1.5-.5s-1.5-1-1.5-.7c0 .3-1.3.2-2.8-.2-2.2-.7-3.6-.3-6.8 1.8-2.1 1.5-4.5 4-5.3 5.5-2 4.2-1.6 10.1.8 12.8 1.2 1.2 2.1 2.5 2.1 2.9 0 .3 1.4 1.2 3.1 1.9 3.2 1.4 6.1 6 7.5 12 .4 1.9.9 3.9 1 4.5 2.6 10.6 4.3 40.8 2.6 46.6-.4 1.5-2.9 5.3-5.7 8.5-15 17.3-19.9 23.1-21.4 24.5-.9.9-2.9 3.4-4.6 5.4-1.6 2.1-3.7 4.5-4.6 5.4-.8.9-5.5 6.3-10.5 12.1-4.9 5.7-9.6 11.1-10.4 12-.8.9-3.5 4-6 7-2.5 2.9-4.9 5.8-5.5 6.4-.5.6-3.7 4.3-7 8.1-12.7 14.9-17.1 18-26.5 18.7-3.9.3-11.2-3.5-15.1-7.9-10.3-11.4-20.4-37.1-20.8-52.6-.4-15.4-1.6-25.4-4.3-36.7-1.1-4.7-2.1-9.2-2.3-10-2.1-9-12.3-32.3-16.3-37.1-5.4-6.5-6.5-8.5-6.9-12.2-.7-6.3-6.2-16.7-8.8-16.7-.3 0-1.3-.7-2.1-1.5-2.3-2.3-9.4-3.8-15.1-3.2-5.3.6-12-1.2-15.4-4-.8-.7-2-1.3-2.6-1.3-.6 0-1.3-.3-1.5-.8-.1-.4-4.6-4.2-9.8-8.5-12.2-10.1-15.6-13.1-15.7-13.7-.3-3.9-7.6-19.9-11.1-24.2-4.4-5.5-10.2-10.3-14.7-12.4-2.7-1.3-5.5-2.4-6-2.4-.6 0-1.6-1.4-2.2-3-1-2.6-1.6-3-5-3-2.2 0-4.4.5-5.1 1.2z"/></svg>