<?xml version="1.0" standalone="no"?>
<!DOCTYPE svg PUBLIC "-//W3C//DTD SVG 1.1//EN" "http://www.w3.org/Graphics/SVG/1.1/DTD/svg11.dtd" >
<svg xmlns="http://www.w3.org/2000/svg" xmlns:xlink="http://www.w3.org/1999/xlink" version="1.1">
<metadata></metadata>
<defs>
<font id="d-din_expregular" horiz-adv-x="572" >
<font-face units-per-em="1000" ascent="831" descent="-169" />
<missing-glyph horiz-adv-x="217" />
<glyph horiz-adv-x="0" />
<glyph unicode="&#xd;" horiz-adv-x="217" />
<glyph horiz-adv-x="600" />
<glyph horiz-adv-x="600" />
<glyph unicode=" "  horiz-adv-x="217" />
<glyph unicode="&#x09;" horiz-adv-x="217" />
<glyph unicode="&#xa0;" horiz-adv-x="217" />
<glyph unicode="!" horiz-adv-x="239" d="M69 690h101l-17 -484h-66zM69 104h101v-104h-101v104z" />
<glyph unicode="&#x22;" horiz-adv-x="337" d="M48 690h81v-251h-81v251zM208 690h82v-251h-82v251z" />
<glyph unicode="#" horiz-adv-x="584" d="M436 423l-18 -140h119v-67h-127l-28 -216h-73l28 216h-128l-28 -216h-73l28 216h-113v67h122l18 140h-116v66h125l26 201h72l-26 -201h128l26 201h72l-26 -201h118v-66h-126zM364 423h-128l-18 -140h128z" />
<glyph unicode="$" horiz-adv-x="519" d="M428 84q-50 -47 -140 -55v-88h-67v87q-89 7 -137 54t-53 132h83q5 -50 30.5 -76t76.5 -33v211l-10 2q-83 15 -125 54.5t-42 111.5q0 75 46.5 121.5t130.5 54.5v81h67v-80q81 -7 127.5 -51.5t51.5 -124.5h-83q-4 45 -27.5 69.5t-68.5 30.5v-198l24 -4q82 -15 124 -56.5 t42 -115.5q0 -80 -50 -127zM152 430.5q22 -21.5 69 -31.5v186q-91 -12 -91 -94q0 -39 22 -60.5zM392 205q0 44 -24 66t-80 33v-200q104 10 104 101z" />
<glyph unicode="%" horiz-adv-x="917" d="M77.5 307.5q-35.5 41.5 -35.5 122.5v108q0 78 36.5 118.5t106.5 40.5q143 0 143 -159v-108q0 -81 -36 -122.5t-108 -41.5q-71 0 -106.5 41.5zM609 692h74l-381 -692h-73zM235 357q15 24 15 78v95q0 52 -15 76t-50 24t-50.5 -24t-15.5 -76v-95q0 -54 15.5 -78t50.5 -24 t50 24zM589 158v107q0 79 36 119t107 40q143 0 143 -159v-107q0 -164 -144 -164q-142 0 -142 164zM782 85q15 24 15 77v95q0 53 -15 76.5t-50 23.5t-50.5 -23.5t-15.5 -76.5v-95q0 -53 15.5 -77t50.5 -24t50 24z" />
<glyph unicode="&#x26;" horiz-adv-x="663" d="M611 78v-78h-34q-37 0 -61 12t-52 44l-19 23q-45 -48 -91.5 -69t-101.5 -21q-63 0 -108 24.5t-68.5 66.5t-23.5 95q0 60 34.5 110.5t107.5 97.5q-43 53 -61.5 90.5t-18.5 74.5q0 44 21 78.5t59 54.5t86 20q73 0 119 -43t46 -111q0 -52 -30 -92t-98 -85l-5 -3l139 -167 l90 105l57 -50l-98 -114l24 -29q17 -19 31.5 -26.5t35.5 -7.5h20zM220.5 607.5q-22.5 -22.5 -22.5 -58.5q0 -25 13 -50t48 -69l5 -6l6 4q51 33 71.5 59.5t20.5 60.5q0 37 -22.5 59.5t-59.5 22.5t-59.5 -22.5zM328.5 82.5q32.5 16.5 68.5 54.5l-156 188q-53 -35 -79 -70.5 t-26 -76.5q0 -49 32 -80.5t90 -31.5q38 0 70.5 16.5z" />
<glyph unicode="'" horiz-adv-x="177" d="M48 690h81v-251h-81v251z" />
<glyph unicode="(" horiz-adv-x="313" d="M86.5 112q-34.5 104 -34.5 216q0 113 35 217.5t103 194.5h71q-59 -88 -91.5 -195.5t-32.5 -216.5q0 -110 32.5 -217.5t91.5 -194.5h-72q-68 92 -102.5 196z" />
<glyph unicode=")" horiz-adv-x="313" d="M143.5 110.5q32.5 107.5 32.5 217.5q0 109 -32.5 216.5t-91.5 195.5h71q68 -90 103 -194.5t35 -217.5q0 -112 -34.5 -216t-102.5 -196h-72q59 87 91.5 194.5z" />
<glyph unicode="*" horiz-adv-x="411" d="M179 510l-104 -53l-23 45l102 49l-102 49l23 45l104 -52v97h53v-98l104 53l22 -45l-101 -48l102 -50l-23 -45l-104 53v-103h-53v103z" />
<glyph unicode="+" horiz-adv-x="509" d="M214 236h-161v80h161v162h81v-162h161v-80h-161v-162h-81v162z" />
<glyph unicode="," horiz-adv-x="177" d="M48 107h81v-179l-81 -73v252z" />
<glyph unicode="-" horiz-adv-x="422" d="M52 387h318v-81h-318v81z" />
<glyph unicode="." horiz-adv-x="198" d="M48 107h102v-107h-102v107z" />
<glyph unicode="/" horiz-adv-x="428" d="M303 692h73l-251 -702h-73z" />
<glyph unicode="0" horiz-adv-x="549" d="M115 53.5q-54 63.5 -54 188.5v211q0 122 54 184.5t160 62.5t160.5 -62.5t54.5 -184.5v-211q0 -125 -54.5 -188.5t-160.5 -63.5t-160 63.5zM370 113.5q29 42.5 29 135.5v192q0 93 -29.5 135.5t-94.5 42.5q-64 0 -93.5 -42.5t-29.5 -135.5v-192q0 -93 29.5 -135.5 t93.5 -42.5q66 0 95 42.5z" />
<glyph unicode="1" horiz-adv-x="362" d="M192 591l-147 -92v97l147 94h91v-690h-91v591z" />
<glyph unicode="2" horiz-adv-x="530" d="M56 73l255 289q39 42 54.5 73.5t15.5 67.5v12q0 50 -32 78t-89 28q-56 0 -86.5 -28t-30.5 -82v-11h-88v18q0 84 56 133t151 49q64 0 111.5 -23t73 -64.5t25.5 -95.5v-15q0 -51 -21 -94t-70 -95l-205 -233h302v-80h-422v73z" />
<glyph unicode="3" horiz-adv-x="549" d="M112.5 36.5q-56.5 46.5 -56.5 130.5v10h88v-9q0 -48 32.5 -73.5t94.5 -25.5t95 30t33 85v19q0 56 -34.5 85t-101.5 29h-41v80h40q61 0 93 28t32 79v14q0 50 -30.5 76.5t-88.5 26.5t-88 -26t-30 -75v-10h-86v11q0 84 54.5 131.5t152.5 47.5q97 0 151.5 -46.5t54.5 -129.5 v-15q0 -52 -26.5 -88.5t-72.5 -55.5q55 -18 83.5 -60t28.5 -103v-18q0 -90 -59 -142t-161 -52q-101 0 -157.5 46.5z" />
<glyph unicode="4" horiz-adv-x="564" d="M522 128h-83v-128h-91v128h-305v81l235 481h93l-235 -481h212v179h91v-179h83v-81z" />
<glyph unicode="5" horiz-adv-x="536" d="M114 39q-53 49 -53 126v8h87v-5q0 -42 30 -70t88 -28q121 0 121 135v35q0 67 -30 101.5t-88 34.5q-39 0 -67 -17.5t-42 -50.5h-88v382h386v-81h-305v-204q23 23 58 36.5t74 13.5q91 0 141.5 -55t50.5 -156v-43q0 -100 -56 -155.5t-157 -55.5q-97 0 -150 49z" />
<glyph unicode="6" horiz-adv-x="552" d="M115 45q-60 55 -60 147v22q0 49 15.5 93t52.5 101l169 282h99l-176 -290q14 8 36.5 13t49.5 5q57 0 102 -25.5t70.5 -70.5t25.5 -102v-24q0 -95 -60.5 -150.5t-161.5 -55.5q-102 0 -162 55zM373.5 102.5q35.5 33.5 35.5 90.5v23q0 56 -35.5 89t-97.5 33 q-61 0 -95.5 -32.5t-34.5 -90.5v-23q0 -57 35.5 -90t95.5 -33q61 0 96.5 33.5z" />
<glyph unicode="7" horiz-adv-x="489" d="M454 690v-81l-262 -609h-92l263 609h-326v81h417z" />
<glyph unicode="8" horiz-adv-x="568" d="M122 43q-61 53 -61 143v15q0 57 27 98.5t79 63.5q-43 19 -67 57t-24 87v13q0 53 26 94t73 63.5t110 22.5t110.5 -22.5t73.5 -63.5t26 -94v-13q0 -49 -24.5 -87t-66.5 -57q51 -22 78 -64t27 -97v-15q0 -90 -61.5 -143.5t-162.5 -53.5q-102 0 -163 53zM373.5 429 q31.5 28 31.5 76v15q0 47 -32 74t-88 27q-55 0 -87 -27t-32 -74v-15q0 -48 31.5 -76t87.5 -28q57 0 88.5 28zM383.5 100.5q35.5 31.5 35.5 87.5v16q0 55 -35.5 86.5t-98.5 31.5t-98.5 -31.5t-35.5 -86.5v-16q0 -56 35.5 -87.5t98.5 -31.5t98.5 31.5z" />
<glyph unicode="9" horiz-adv-x="552" d="M340 290q-32 -18 -87 -18q-57 0 -102 25.5t-70.5 70.5t-25.5 102v24q0 95 60.5 150.5t161.5 55.5q102 0 162 -55t60 -147v-22q0 -49 -15.5 -93t-51.5 -101l-170 -282h-98zM374 384.5q35 32.5 35 90.5v23q0 57 -35.5 90t-96.5 33t-96.5 -33.5t-35.5 -90.5v-23 q0 -56 36 -89t97 -33t96 32.5z" />
<glyph unicode=":" horiz-adv-x="198" d="M48 396h102v-107h-102v107zM48 156h102v-107h-102v107z" />
<glyph unicode=";" horiz-adv-x="198" d="M48 445h102v-107h-102v107zM68 107h82v-179l-82 -73v252z" />
<glyph unicode="&#x3c;" horiz-adv-x="509" d="M53 240v72l402 162v-84l-292 -114l292 -115v-84z" />
<glyph unicode="=" horiz-adv-x="509" d="M53 400h402v-81h-402v81zM53 232h402v-80h-402v80z" />
<glyph unicode="&#x3e;" horiz-adv-x="509" d="M53 161l292 115l-292 114v84l402 -162v-72l-402 -163v84z" />
<glyph unicode="?" horiz-adv-x="485" d="M192 238q0 46 10.5 72.5t41.5 56.5l58 57q29 27 40 49.5t11 53.5q0 45 -29.5 69t-86.5 24q-116 0 -116 -106h-87q2 90 54.5 138t149.5 48q96 0 150.5 -45.5t54.5 -124.5q0 -41 -14.5 -75t-45.5 -67l-68 -68q-21 -21 -28 -38.5t-7 -47.5v-51h-88v55zM185 103h101v-103 h-101v103z" />
<glyph unicode="@" horiz-adv-x="857" d="M232 -83q-85 47 -132.5 132t-47.5 196v76q0 110 47.5 194.5t133 131t195.5 46.5q109 0 195 -47t134 -130.5t48 -191.5v-75q0 -96 -43 -144.5t-112 -48.5q-42 0 -72.5 18t-45.5 51q-31 -69 -126 -69q-75 0 -111 46.5t-36 131.5v88q0 85 35 132t108 47q37 0 64.5 -14.5 t43.5 -39.5v44h79v-289q0 -39 17.5 -59t44.5 -20q35 0 53 29t18 95v76q0 89 -35.5 155.5t-102 103t-156.5 36.5t-156 -36t-101.5 -103t-35.5 -157v-77q0 -90 35 -157.5t101.5 -105t156.5 -37.5q63 0 112 12.5t97 38.5l31 -65q-55 -32 -111.5 -46.5t-128.5 -14.5 q-111 0 -196 47zM508 235v88q0 52 -20.5 80.5t-62.5 28.5q-84 0 -84 -111v-82q0 -55 19.5 -84.5t64.5 -29.5q83 0 83 110z" />
<glyph unicode="A" horiz-adv-x="666" d="M501 156h-338l-62 -156h-95l288 690h77l289 -690h-96zM470 233l-138 345l-138 -345h276z" />
<glyph unicode="B" horiz-adv-x="671" d="M582.5 296.5q29.5 -41.5 29.5 -104.5q0 -94 -59 -143t-172 -49h-309v690h303q110 0 167.5 -47t57.5 -138q0 -53 -27 -92t-77 -57q57 -18 86.5 -59.5zM163 610v-217h212q68 0 101.5 26.5t33.5 81.5t-33 82t-100 27h-214zM487 109q34 29 34 89q0 115 -144 115h-214v-233 h220q70 0 104 29z" />
<glyph unicode="C" horiz-adv-x="680" d="M136.5 67.5q-75.5 76.5 -75.5 227.5v101q0 151 76 227.5t215 76.5q125 0 197 -58t72 -162v-5h-91v4q0 67 -46.5 103t-132.5 36q-101 0 -150 -55t-49 -172v-97q0 -113 49.5 -167t150.5 -54q86 0 132 36t46 104v4h90v-5q0 -104 -72.5 -162.5t-197.5 -58.5 q-138 0 -213.5 76.5z" />
<glyph unicode="D" horiz-adv-x="674" d="M72 690h255q138 0 213 -75t75 -224v-91q0 -149 -75.5 -224.5t-214.5 -75.5h-253v690zM327 81q100 0 148.5 53t48.5 164v88q0 114 -48.5 168.5t-148.5 54.5h-164v-528h164z" />
<glyph unicode="E" horiz-adv-x="597" d="M163 609v-218h335v-81h-335v-229h391v-81h-482v690h482v-81h-391z" />
<glyph unicode="F" horiz-adv-x="590" d="M163 609v-221h336v-81h-336v-307h-91v690h482v-81h-391z" />
<glyph unicode="G" horiz-adv-x="680" d="M136.5 67.5q-75.5 76.5 -75.5 227.5v101q0 151 75.5 227.5t214.5 76.5q124 0 196.5 -59t72.5 -160v-5h-90v4q0 64 -47 101t-132 37q-101 0 -150 -55t-49 -172v-97q0 -113 49.5 -167t150.5 -54q179 0 179 169v41h-191v77h281v-112q0 -126 -72 -191.5t-198 -65.5 q-139 0 -214.5 76.5z" />
<glyph unicode="H" horiz-adv-x="685" d="M613 690v-690h-90v312h-360v-312h-91v690h91v-298h360v298h90z" />
<glyph unicode="I" horiz-adv-x="249" d="M79 690h91v-690h-91v690z" />
<glyph unicode="J" horiz-adv-x="345" d="M29 81h62q46 0 65 19.5t19 66.5v523h91v-535q0 -78 -39 -116.5t-118 -38.5h-80v81z" />
<glyph unicode="K" horiz-adv-x="671" d="M319 355l-156 -166v-189h-91v690h91v-386l355 386h114l-253 -271l285 -419h-109z" />
<glyph unicode="L" horiz-adv-x="579" d="M72 690h91v-609h387v-81h-478v690z" />
<glyph unicode="M" horiz-adv-x="827" d="M755 690v-690h-90v522l-219 -385h-64l-219 385v-522h-91v690h91l251 -448l251 448h90z" />
<glyph unicode="N" horiz-adv-x="721" d="M649 690v-690h-91l-395 534v-534h-91v690h91l395 -535v535h91z" />
<glyph unicode="O" horiz-adv-x="695" d="M135.5 67.5q-74.5 76.5 -74.5 227.5v101q0 151 75.5 227.5t213.5 76.5q137 0 211.5 -76.5t74.5 -227.5v-101q0 -151 -75.5 -227.5t-213.5 -76.5q-137 0 -211.5 76.5zM497 127q49 54 49 167v97q0 117 -49 172t-148 55q-100 0 -148.5 -55t-48.5 -172v-97q0 -113 48.5 -167 t148.5 -54q99 0 148 54z" />
<glyph unicode="P" horiz-adv-x="637" d="M547 637.5q61 -52.5 61 -154.5q0 -100 -60.5 -153t-176.5 -53h-208v-277h-91v690h299q115 0 176 -52.5zM482 387.5q35 29.5 35 94.5q0 68 -36 97.5t-114 29.5h-204v-251h210q74 0 109 29.5z" />
<glyph unicode="Q" horiz-adv-x="695" d="M523 37l80 -150l-71 -38l-83 155q-45 -13 -102 -13q-137 0 -211.5 76.5t-74.5 227.5v101q0 151 75.5 227.5t213.5 76.5q137 0 211.5 -76.5t74.5 -227.5v-101q0 -184 -113 -258zM546 391q0 117 -49 172t-148 55q-100 0 -148.5 -55t-48.5 -172v-97q0 -113 48.5 -167 t148.5 -54q99 0 148 54t49 167v97z" />
<glyph unicode="R" horiz-adv-x="665" d="M363 294h-200v-294h-91v690h301q114 0 174.5 -51t60.5 -147q0 -75 -38.5 -123.5t-112.5 -65.5l171 -303h-104zM163 373h212q73 0 107.5 29t34.5 90q0 60 -36.5 88.5t-111.5 28.5h-206v-236z" />
<glyph unicode="S" horiz-adv-x="611" d="M106 46q-68 52 -75 153h88q6 -67 51.5 -97t131.5 -30q178 0 178 119q0 52 -34 80t-105 36l-93 11q-201 25 -201 185q0 93 68 144.5t186 51.5q115 0 180.5 -49.5t75.5 -146.5h-88q-5 60 -46 89.5t-122 29.5q-82 0 -124 -29t-42 -84q0 -48 32.5 -75t101.5 -36l97 -11 q204 -27 204 -190q0 -97 -72 -150t-200 -53q-124 0 -192 52z" />
<glyph unicode="T" horiz-adv-x="550" d="M543 609h-223v-609h-90v609h-223v81h536v-81z" />
<glyph unicode="U" horiz-adv-x="692" d="M144.5 60.5q-72.5 66.5 -72.5 186.5v443h91v-437q0 -179 183 -179t183 179v437h91v-443q0 -120 -72.5 -186.5t-201.5 -66.5t-201.5 66.5z" />
<glyph unicode="V" horiz-adv-x="605" d="M6 690h95l203 -567l200 567h95l-257 -690h-76z" />
<glyph unicode="W" horiz-adv-x="914" d="M908 690l-196 -690h-92l-161 577l-161 -577h-92l-200 690h90l159 -562l147 562h113l154 -562l151 562h88z" />
<glyph unicode="X" horiz-adv-x="648" d="M270 359l-243 331h108l190 -261l188 261h105l-241 -328l265 -362h-108l-214 292l-209 -292h-105z" />
<glyph unicode="Y" horiz-adv-x="580" d="M335 278v-278h-90v279l-239 411h102l183 -335l181 335h102z" />
<glyph unicode="Z" horiz-adv-x="571" d="M538 82v-81h-502v81l392 528h-379v81h484v-81l-391 -528h396z" />
<glyph unicode="[" horiz-adv-x="323" d="M72 740h199v-81h-113v-662h113v-81h-199v824z" />
<glyph unicode="\" horiz-adv-x="428" d="M52 692h73l251 -702h-73z" />
<glyph unicode="]" horiz-adv-x="323" d="M52 -3h112v662h-112v81h199v-824h-199v81z" />
<glyph unicode="^" horiz-adv-x="509" d="M218 692h73l169 -411h-73l-133 328l-132 -328h-73z" />
<glyph unicode="_" horiz-adv-x="537" d="M0 -50h537v-59h-537v59z" />
<glyph unicode="`" horiz-adv-x="500" d="M97 705h111l115 -128h-82z" />
<glyph unicode="a" horiz-adv-x="549" d="M425 471.5q57 -47.5 57 -137.5v-334h-83v58q-53 -64 -167 -64q-93 0 -141.5 39.5t-48.5 114.5q0 72 50 110.5t146 38.5h159v35q0 116 -135 116q-59 0 -89.5 -22t-30.5 -62v-3h-83v3q0 72 54 113.5t148 41.5q107 0 164 -47.5zM361 95q36 32 36 98v40h-145 q-65 0 -95.5 -20.5t-30.5 -63.5q0 -44 30 -65t93 -21q76 0 112 32z" />
<glyph unicode="b" horiz-adv-x="580" d="M218 10q-41 19 -67 56v-66h-84v690h85v-247q25 37 67 58t95 21q97 0 155.5 -62t58.5 -176v-54q0 -115 -58.5 -177t-155.5 -62q-55 0 -96 19zM406 108q37 42 37 126v46q0 84 -37 125t-106 41t-108.5 -42.5t-39.5 -114.5v-67q0 -71 40 -113.5t110 -42.5q67 0 104 42z" />
<glyph unicode="c" horiz-adv-x="553" d="M114 52.5q-62 61.5 -62 178.5v51q0 117 62 178.5t172 61.5q101 0 158 -49.5t57 -136.5v-5h-83v5q0 52 -34 81t-97 29q-150 0 -150 -166v-47q0 -167 150 -167q63 0 97 29t34 80v4h83v-4q0 -85 -56.5 -134.5t-157.5 -49.5q-111 0 -173 61.5z" />
<glyph unicode="d" horiz-adv-x="580" d="M109 52.5q-57 61.5 -57 176.5v55q0 114 57.5 176t152.5 62q54 0 97.5 -21t68.5 -57v246h84v-690h-84v67q-25 -37 -67 -56.5t-97 -19.5q-98 0 -155 61.5zM389 108q39 42 39 114v67q0 73 -39.5 115t-109.5 42q-68 0 -105 -41.5t-37 -125.5v-46q0 -84 37.5 -125.5 t105.5 -41.5q70 0 109 42z" />
<glyph unicode="e" horiz-adv-x="557" d="M137 235v-4q0 -166 155 -166q59 0 91.5 27.5t33.5 69.5v3h84v-4q-1 -48 -26.5 -86.5t-73 -61t-111.5 -22.5q-112 0 -175 62.5t-63 182.5v41q0 118 60 181.5t167 63.5q105 0 165 -58.5t60 -168.5v-60h-367zM177.5 410.5q-36.5 -36.5 -40.5 -111.5h282v9q0 70 -36.5 104.5 t-103.5 34.5q-65 0 -101.5 -36.5z" />
<glyph unicode="f" horiz-adv-x="364" d="M221.5 608.5q-19.5 -18.5 -19.5 -57.5v-39h128v-64h-128v-448h-85v448h-72v64h72v36q0 69 39 105.5t113 36.5h61v-63h-47q-42 0 -61.5 -18.5z" />
<glyph unicode="g" horiz-adv-x="580" d="M124.5 -123.5q-55.5 36.5 -61.5 107.5h83q9 -37 41 -54.5t92 -17.5q76 0 112.5 31t36.5 95v54q-25 -38 -67 -57.5t-97 -19.5q-97 0 -154.5 60.5t-57.5 171.5v39q0 113 57 174.5t153 61.5q54 0 97.5 -20.5t68.5 -56.5v67h84v-468q0 -98 -60.5 -151t-173.5 -53 q-98 0 -153.5 36.5zM389.5 131q38.5 40 38.5 114v47q0 71 -39.5 113t-109.5 42q-68 0 -105 -41.5t-37 -124.5v-29q0 -80 37.5 -120.5t104.5 -40.5q72 0 110.5 40z" />
<glyph unicode="h" d="M67 690h85v-247q27 37 68.5 56t93.5 19q91 0 141 -52t50 -144v-322h-85v311q0 65 -32.5 98t-94.5 33q-64 0 -102.5 -38t-38.5 -104v-300h-85v690z" />
<glyph unicode="i" horiz-adv-x="234" d="M74 689h85v-92h-85v92zM74 512h85v-512h-85v512z" />
<glyph unicode="j" horiz-adv-x="232" d="M71 690h86v-93h-86v93zM-54 -77h45q44 0 63 19t19 64v506h85v-512q0 -76 -39.5 -114.5t-117.5 -38.5h-55v76z" />
<glyph unicode="k" horiz-adv-x="558" d="M259 258l-107 -107v-151h-85v690h85v-437l255 259h107l-197 -196l224 -316h-101z" />
<glyph unicode="l" horiz-adv-x="302" d="M105.5 37.5q-38.5 37.5 -38.5 116.5v536h85v-531q0 -45 18.5 -64t64.5 -19h44v-76h-55q-80 0 -118.5 37.5z" />
<glyph unicode="m" horiz-adv-x="912" d="M67 512h84v-69q27 37 69 56t93 19q52 0 93 -21.5t65 -60.5q32 42 75.5 62t103.5 20q93 0 143.5 -51.5t50.5 -144.5v-322h-85v311q0 65 -32 98t-93 33q-65 0 -100 -34.5t-35 -98.5v-309h-86v312q0 64 -31.5 97t-88.5 33q-64 0 -102.5 -38t-38.5 -104v-300h-85v512z" />
<glyph unicode="n" d="M67 512h84v-69q27 37 69 56t94 19q91 0 141 -52t50 -144v-322h-85v311q0 65 -32.5 98t-94.5 33q-64 0 -102.5 -38t-38.5 -104v-300h-85v512z" />
<glyph unicode="o" d="M114.5 52.5q-62.5 61.5 -62.5 178.5v51q0 117 62.5 178.5t172.5 61.5q109 0 171 -62t62 -178v-51q0 -117 -62 -178.5t-171 -61.5q-110 0 -172.5 61.5zM435 233v47q0 166 -149 166t-149 -166v-47q0 -167 149 -167t149 167z" />
<glyph unicode="p" horiz-adv-x="580" d="M67 512h84v-69q26 37 68 57.5t95 20.5q97 0 155.5 -61.5t58.5 -175.5v-54q0 -115 -58.5 -177t-155.5 -62q-110 0 -162 75v-228h-85v674zM406 108q37 42 37 126v45q0 84 -37 125.5t-106 41.5t-108.5 -42.5t-39.5 -114.5v-67q0 -71 40 -113.5t110 -42.5q67 0 104 42z" />
<glyph unicode="q" horiz-adv-x="580" d="M428 67q-25 -37 -67.5 -56.5t-96.5 -19.5q-98 0 -155 61.5t-57 176.5v55q0 114 57.5 175.5t153.5 61.5q54 0 97 -20.5t68 -56.5v68h84v-674h-84v229zM389 108q39 42 39 114v67q0 73 -39.5 115t-109.5 42q-68 0 -105 -41.5t-37 -125.5v-46q0 -84 37.5 -125.5t105.5 -41.5 q70 0 109 42z" />
<glyph unicode="r" horiz-adv-x="378" d="M67 512h84v-72q26 40 68 59.5t95 19.5q22 0 41 -3v-81q-27 8 -56 8q-66 0 -106.5 -40t-40.5 -108v-295h-85v512z" />
<glyph unicode="s" horiz-adv-x="517" d="M99 36.5q-57 42.5 -57 116.5v3h81v-2q0 -41 34 -65t105 -24q64 0 100.5 21t36.5 61q0 33 -26.5 50t-84.5 23l-73 9q-85 10 -125 43.5t-40 94.5q0 71 56 111.5t152 40.5q100 0 157 -41t57 -111v-4h-81v3q0 41 -34.5 62.5t-97.5 21.5q-64 0 -96 -20t-32 -57q0 -32 23 -48.5 t79 -22.5l78 -10q86 -10 127.5 -44t41.5 -96q0 -75 -59.5 -116.5t-162.5 -41.5q-102 0 -159 42.5z" />
<glyph unicode="t" horiz-adv-x="383" d="M206 448v-296q0 -42 19 -60t63 -18h43v-74h-57q-153 0 -153 147v301h-90v64h90v111l85 35v-146h136v-64h-136z" />
<glyph unicode="u" d="M123 47.5q-56 54.5 -56 155.5v309h85v-300q0 -143 134 -143q69 0 101.5 35.5t32.5 107.5v300h85v-309q0 -101 -56.5 -155.5t-163.5 -54.5q-106 0 -162 54.5z" />
<glyph unicode="v" horiz-adv-x="513" d="M13 512h91l153 -406l152 406h91l-202 -512h-83z" />
<glyph unicode="w" horiz-adv-x="820" d="M13 512h91l130 -404l141 404h69l142 -404l130 404h91l-177 -512h-84l-137 390l-137 -390h-83z" />
<glyph unicode="x" horiz-adv-x="488" d="M384 0l-141 199l-139 -199h-91l185 262l-176 250h91l130 -184l129 184h91l-176 -247l188 -265h-91z" />
<glyph unicode="y" horiz-adv-x="513" d="M500 512l-221 -563q-21 -54 -61 -78t-105 -24h-36v77h36q45 0 67 13t34 46l6 17l-207 512h91l157 -403l150 403h89z" />
<glyph unicode="z" horiz-adv-x="500" d="M448 436l-298 -361h298v-75h-396v75l296 361h-296v76h396v-76z" />
<glyph unicode="{" horiz-adv-x="377" d="M140 31v180q0 44 -19 62t-69 19v77q50 1 69 19t19 61v176q0 115 112 115h73v-73h-50q-26 0 -37.5 -12t-11.5 -39v-164q0 -56 -14 -82.5t-49 -39.5q35 -13 49 -39t14 -82v-169q0 -27 11.5 -39t37.5 -12h50v-73h-73q-112 0 -112 115z" />
<glyph unicode="|" horiz-adv-x="290" d="M104 740h82v-823h-82v823z" />
<glyph unicode="}" horiz-adv-x="377" d="M52 -11h50q26 0 37.5 12t11.5 39v169q0 56 14 82t49 39q-35 13 -49 39.5t-14 82.5v164q0 27 -11.5 39t-37.5 12h-50v73h72q56 0 84 -28.5t28 -86.5v-176q0 -43 19 -61t70 -19v-77q-51 -1 -70 -19t-19 -62v-180q0 -58 -28 -86.5t-84 -28.5h-72v73z" />
<glyph unicode="~" horiz-adv-x="509" d="M43 245q22 48 55.5 72.5t74.5 24.5q26 0 47 -9t46 -25q25 -14 38.5 -20t28.5 -6q23 0 39.5 13t34.5 46l58 -36q-22 -48 -56 -73t-75 -25q-25 0 -45.5 8.5t-47.5 25.5q-21 14 -36 20.5t-30 6.5q-23 0 -39 -12.5t-34 -45.5z" />
<glyph unicode="&#xa1;" horiz-adv-x="239" d="M69 512h102v-106h-102v106zM87 306h66l17 -459h-101z" />
<glyph unicode="&#xa2;" horiz-adv-x="553" d="M418 331v5q0 46 -26.5 74t-75.5 34v-376q49 6 75.5 34t26.5 73v4h83v-4q0 -79 -48.5 -127.5t-136.5 -55.5v-92h-61v92q-96 9 -149.5 70t-53.5 169v51q0 108 53.5 169t149.5 70v90h61v-90q88 -7 136.5 -56t48.5 -129v-5h-83zM255 68v376q-118 -17 -118 -164v-47 q0 -148 118 -165z" />
<glyph unicode="&#xa3;" horiz-adv-x="501" d="M471 82v-82h-417v77q28 13 40 36t12 63v111h-75v80h75v135q0 96 47 147t137 51q86 0 132 -43.5t46 -124.5h-87q0 45 -22.5 66.5t-69.5 21.5q-92 0 -92 -106v-147h170v-80h-170v-101q0 -35 -9 -60t-28 -44h311z" />
<glyph unicode="&#xa4;" horiz-adv-x="606" d="M413 157q-49 -33 -111 -33t-111 33l-69 -68l-55 56l68 68q-32 50 -32 110q0 63 33 110l-69 70l55 55l69 -68q50 32 111 32q62 0 110 -32l70 68l55 -55l-69 -69q34 -50 34 -111t-33 -110l69 -69l-55 -56zM390.5 233q34.5 36 34.5 90t-34.5 90t-88.5 36q-53 0 -88 -36 t-35 -90t35 -90t88 -36q54 0 88.5 36z" />
<glyph unicode="&#xa5;" horiz-adv-x="532" d="M221 143h-163v66h163v62h-163v67h142l-191 352h100l158 -311l156 311h100l-190 -352h143v-67h-164v-62h164v-66h-164v-143h-91v143z" />
<glyph unicode="&#xa6;" horiz-adv-x="290" d="M104 725h82v-352h-82v352zM104 285h82v-353h-82v353z" />
<glyph unicode="&#xa7;" horiz-adv-x="559" d="M136 -124.5q-49 43.5 -49 123.5h82q0 -92 108 -92q52 0 78.5 20.5t26.5 60.5q0 46 -34.5 67t-114.5 38q-161 37 -161 179q0 59 28 100.5t83 60.5q-46 19 -66 51t-20 77q0 70 50 111.5t136 41.5q89 0 136 -42.5t47 -118.5h-82q0 86 -102 86q-48 0 -73.5 -20t-25.5 -58 q0 -31 16 -50t46 -30.5t83 -22.5q68 -16 113.5 -56.5t45.5 -122.5q0 -61 -28 -102t-80 -58q45 -19 67 -51t22 -81q0 -73 -51.5 -114t-139.5 -41q-92 0 -141 43.5zM370 195q31 28 31 80q0 53 -31 81t-90 28q-60 0 -91 -28t-31 -81t31 -80.5t91 -27.5q59 0 90 28z" />
<glyph unicode="&#xa8;" horiz-adv-x="500" d="M100 676h85v-95h-85v95zM315 676h84v-95h-84v95z" />
<glyph unicode="&#xa9;" horiz-adv-x="803" d="M224 35q-78 44 -120.5 123.5t-42.5 182.5t42.5 182.5t120.5 123.5t179 44t178.5 -44t120 -123.5t42.5 -182.5q0 -104 -42.5 -183t-120 -123t-178.5 -44t-179 44zM549.5 86q62.5 36 96.5 102t34 153t-34 153t-96.5 101.5t-146.5 35.5t-147 -35.5t-97 -101.5t-34 -153 q0 -88 34 -153.5t97 -101.5t147 -36t146.5 36zM280.5 192.5q-46.5 44.5 -46.5 129.5v41q0 84 46.5 129t125.5 45q74 0 116.5 -35t42.5 -95v-4h-66v3q0 35 -24.5 54t-67.5 19q-51 0 -78.5 -29t-27.5 -89v-37q0 -119 107 -119q43 0 67 19t24 54v4h65v-4q0 -60 -42.5 -95 t-115.5 -35q-79 0 -125.5 44.5z" />
<glyph unicode="&#xaa;" horiz-adv-x="382" d="M327 632v-202h-68v33q-37 -37 -100 -37q-56 0 -86 25.5t-30 70.5q0 46 32 69.5t93 23.5h88v21q0 29 -17.5 43t-53.5 14q-32 0 -49 -10.5t-17 -29.5v-2h-66v2q0 45 35 70t100 25q139 0 139 -116zM236.5 500.5q19.5 16.5 19.5 51.5v14h-78q-34 0 -50 -10t-16 -31 q0 -41 63 -41q42 0 61.5 16.5zM8 700z" />
<glyph unicode="&#xab;" horiz-adv-x="552" d="M23 264l233 205v-91l-132 -114l132 -114v-91zM252 264l233 205v-91l-132 -114l132 -114v-91z" />
<glyph unicode="&#xac;" horiz-adv-x="509" d="M370 261h-317v77h403v-209h-86v132z" />
<glyph unicode="&#xad;" horiz-adv-x="422" d="M52 387h318v-81h-318v81z" />
<glyph unicode="&#xae;" horiz-adv-x="519" d="M162.5 332q-42.5 25 -66.5 68.5t-24 98.5q0 54 24 97.5t67 68.5t96 25q54 0 96.5 -25t67 -68.5t24.5 -97.5q0 -55 -24 -98.5t-67 -68.5t-97 -25t-96.5 25zM368.5 385q42.5 44 42.5 114q0 69 -43 113t-109 44q-67 0 -108.5 -44t-41.5 -113q0 -70 41.5 -114t108.5 -44 t109.5 44zM188 607h82q34 0 52.5 -16.5t18.5 -47.5q0 -43 -37 -59l42 -91h-43l-40 86h-34v-86h-41v214zM268 514q33 0 33 29q0 28 -33 28h-39v-57h39z" />
<glyph unicode="&#xaf;" horiz-adv-x="500" d="M98 667h305v-77h-305v77z" />
<glyph unicode="&#xb0;" horiz-adv-x="401" d="M101 459.5q-40 40.5 -40 100.5t40 100t101 40q59 0 99.5 -40t40.5 -100q0 -39 -18.5 -71.5t-50.5 -51t-71 -18.5q-61 0 -101 40.5zM260 500q23 24 23 60q0 37 -23 61t-58 24q-36 0 -59 -24t-23 -61q0 -36 23 -60t59 -24q35 0 58 24z" />
<glyph unicode="&#xb1;" horiz-adv-x="509" d="M214 280h-161v81h161v161h81v-161h161v-81h-161v-161h-81v161zM53 70h403v-81h-403v81z" />
<glyph unicode="&#xb2;" horiz-adv-x="375" d="M51 490l159 166q20 20 29 36.5t9 35.5v6q0 27 -15.5 41.5t-46.5 14.5t-47.5 -14.5t-16.5 -42.5v-7h-75v9q0 56 37.5 87.5t103.5 31.5q65 0 101.5 -31.5t36.5 -85.5v-8q0 -33 -14 -60t-46 -58l-107 -114h169v-67h-277v60z" />
<glyph unicode="&#xb3;" horiz-adv-x="373" d="M82 453.5q-36 29.5 -36 83.5v8h69v-6q0 -52 68 -52t68 57v8q0 31 -18 46t-56 15h-24v65h24q67 0 67 53v7q0 52 -63 52q-31 0 -47.5 -13t-16.5 -37v-7h-69v7q0 54 36 84t100 30t99.5 -29t35.5 -79v-8q0 -62 -58 -87q65 -24 65 -98v-9q0 -56 -38 -88t-104 -32t-102 29.5z " />
<glyph unicode="&#xb4;" horiz-adv-x="500" d="M268 705h105l-135 -128h-79z" />
<glyph unicode="&#xb5;" horiz-adv-x="571" d="M67 512h85v-313q0 -63 34.5 -96.5t95.5 -33.5q64 0 100 38.5t36 108.5v296h86v-512h-84v66q-52 -72 -150 -72q-78 0 -118 39v-186h-85v665z" />
<glyph unicode="&#xb6;" horiz-adv-x="681" d="M325 269h-2q-121 0 -186 55t-65 155q0 101 62.5 156t174.5 55h264v-843h-80v767h-88v-767h-80v422z" />
<glyph unicode="&#xb7;" horiz-adv-x="198" d="M48 326h102v-107h-102v107z" />
<glyph unicode="&#xb8;" horiz-adv-x="500" d="M247 12h73l-72 -164h-86z" />
<glyph unicode="&#xb9;" horiz-adv-x="265" d="M124 767l-85 -53v81l85 52h78v-417h-78v337z" />
<glyph unicode="&#xba;" horiz-adv-x="382" d="M84 463q-38 37 -38 107v35q0 69 38.5 106t106.5 37t107 -37t39 -106v-35q0 -70 -38.5 -107t-107.5 -37t-107 37zM246 510q19 20 19 60v35q0 39 -19 59t-55 20t-55 -20t-19 -59v-35q0 -40 19 -60t55 -20t55 20zM5 700z" />
<glyph unicode="&#xbb;" horiz-adv-x="552" d="M67 150l132 114l-132 114v91l234 -205l-234 -205v91zM296 150l132 114l-132 114v91l234 -205l-234 -205v91z" />
<glyph unicode="&#xbc;" horiz-adv-x="806" d="M588 692l-381 -692h-73l380 692h74zM114 273v336l-86 -53v82l86 52h78v-417h-78zM770 70h-41v-70h-78v70h-193v67l139 280h78l-138 -280h114v95h78v-95h41v-67z" />
<glyph unicode="&#xbd;" horiz-adv-x="817" d="M509 692h74l-381 -692h-73zM114 609l-86 -53v82l86 52h78v-417h-78v336zM493 60l159 166q20 20 29 36.5t9 35.5v6q0 27 -15.5 41.5t-46.5 14.5t-47.5 -14.5t-16.5 -42.5v-7h-75v9q0 56 37.5 87.5t103.5 31.5q65 0 101.5 -31.5t36.5 -85.5v-8q0 -33 -14 -60t-46 -58 l-107 -114h169v-67h-277v60z" />
<glyph unicode="&#xbe;" horiz-adv-x="909" d="M287 298q-38 -32 -103 -32q-67 0 -103 30t-36 84v7h69v-6q0 -25 17.5 -38t50.5 -13q69 0 69 56v9q0 61 -74 61h-25v64h24q68 0 68 54v7q0 52 -64 52q-31 0 -47 -13t-16 -38v-6h-70v7q0 54 36 84t100 30t100 -29t36 -80v-7q0 -62 -58 -87q64 -23 64 -99v-9q0 -56 -38 -88z M691 692l-381 -692h-73l380 692h74zM873 70h-41v-70h-78v70h-193v67l139 280h78l-138 -280h114v95h78v-95h41v-67z" />
<glyph unicode="&#xbf;" horiz-adv-x="485" d="M199 512h101v-104h-101v104zM96.5 -118q-54.5 45 -54.5 124q0 42 14.5 76.5t47.5 67.5l65 62q22 21 29.5 39.5t7.5 49.5v29h88v-33q0 -46 -11 -73.5t-44 -58.5l-56 -52q-28 -27 -39.5 -50t-11.5 -53q0 -45 30 -69t87 -24q115 0 115 106h87q-2 -90 -54.5 -138t-149.5 -48 q-96 0 -150.5 45z" />
<glyph unicode="&#xc0;" horiz-adv-x="666" d="M501 156h-338l-62 -156h-95l288 690h77l289 -690h-96zM470 233l-138 345l-138 -345h276zM180 878h108l111 -128h-80z" />
<glyph unicode="&#xc1;" horiz-adv-x="666" d="M501 156h-338l-62 -156h-95l288 690h77l289 -690h-96zM470 233l-138 345l-138 -345h276zM358 878h107l-139 -128h-80z" />
<glyph unicode="&#xc2;" horiz-adv-x="666" d="M501 156h-338l-62 -156h-95l288 690h77l289 -690h-96zM470 233l-138 345l-138 -345h276zM300 891h65l131 -146h-80l-83 90l-84 -90h-80z" />
<glyph unicode="&#xc3;" horiz-adv-x="666" d="M501 156h-338l-62 -156h-95l288 690h77l289 -690h-96zM470 233l-138 345l-138 -345h276zM186 819q20 19 39 28t43 9q20 0 35.5 -5t35.5 -15q19 -9 32.5 -13.5t30.5 -4.5q23 0 39.5 9t37.5 29v-72q-35 -36 -82 -36q-21 0 -36.5 5t-35.5 15q-20 9 -32.5 13.5t-29.5 4.5 q-22 0 -38.5 -9t-38.5 -29v71z" />
<glyph unicode="&#xc4;" horiz-adv-x="666" d="M501 156h-338l-62 -156h-95l288 690h77l289 -690h-96zM470 233l-138 345l-138 -345h276zM183 854h85v-95h-85v95zM398 854h84v-95h-84v95z" />
<glyph unicode="&#xc5;" horiz-adv-x="666" d="M501 156h-338l-62 -156h-95l287 689q-25 11 -39.5 33.5t-14.5 52.5q0 41 26.5 68t67.5 27q40 0 67 -27t27 -68q0 -30 -15 -52.5t-40 -33.5l288 -689h-96zM297 812.5q-14 -14.5 -14 -37.5q0 -22 14 -37t36 -15t36 15t14 37q0 23 -14 37.5t-36 14.5t-36 -14.5zM470 233 l-138 345l-138 -345h276z" />
<glyph unicode="&#xc6;" horiz-adv-x="1000" d="M572 609v-218h330v-81h-330v-229h385v-81h-476v161h-276l-98 -161h-101l425 690h526v-81h-385zM481 238v376l-229 -376h229z" />
<glyph unicode="&#xc7;" horiz-adv-x="680" d="M530 475v4q0 67 -46.5 103t-132.5 36q-101 0 -150 -55t-49 -172v-97q0 -113 49.5 -167t150.5 -54q86 0 132 36t46 104v4h90v-5q0 -90 -55 -146.5t-153 -70.5l-65 -147h-86l74 143q-131 5 -202.5 81t-71.5 223v101q0 151 76 227.5t215 76.5q125 0 197 -58t72 -162v-5h-91z " />
<glyph unicode="&#xc8;" horiz-adv-x="597" d="M163 609v-218h335v-81h-335v-229h391v-81h-482v690h482v-81h-391zM157 878h108l111 -128h-80z" />
<glyph unicode="&#xc9;" horiz-adv-x="597" d="M163 609v-218h335v-81h-335v-229h391v-81h-482v690h482v-81h-391zM343 878h107l-139 -128h-80z" />
<glyph unicode="&#xca;" horiz-adv-x="597" d="M163 609v-218h335v-81h-335v-229h391v-81h-482v690h482v-81h-391zM277 891h65l131 -146h-80l-83 90l-84 -90h-80z" />
<glyph unicode="&#xcb;" horiz-adv-x="597" d="M163 609v-218h335v-81h-335v-229h391v-81h-482v690h482v-81h-391zM160 854h85v-95h-85v95zM375 854h84v-95h-84v95z" />
<glyph unicode="&#xcc;" horiz-adv-x="249" d="M79 690h91v-690h-91v690zM-28 878h108l111 -128h-80z" />
<glyph unicode="&#xcd;" horiz-adv-x="249" d="M79 690h91v-690h-91v690zM158 878h107l-139 -128h-80z" />
<glyph unicode="&#xce;" horiz-adv-x="249" d="M79 690h91v-690h-91v690zM92 891h65l131 -146h-80l-83 90l-84 -90h-80z" />
<glyph unicode="&#xcf;" horiz-adv-x="249" d="M79 690h91v-690h-91v690zM-25 854h85v-95h-85v95zM190 854h84v-95h-84v95z" />
<glyph unicode="&#xd0;" horiz-adv-x="725" d="M591 615q75 -75 75 -224v-91q0 -149 -75.5 -224.5t-214.5 -75.5h-253v310h-89v81h89v299h255q138 0 213 -75zM575 386q0 114 -48.5 168.5t-148.5 54.5h-164v-218h170v-81h-170v-229h164q100 0 148.5 53t48.5 164v88z" />
<glyph unicode="&#xd1;" horiz-adv-x="721" d="M649 690v-690h-91l-395 534v-534h-91v690h91l395 -535v535h91zM211 819q20 19 39 28t43 9q20 0 35.5 -5t35.5 -15q19 -9 32.5 -13.5t30.5 -4.5q23 0 39.5 9t37.5 29v-72q-35 -36 -82 -36q-21 0 -36.5 5t-35.5 15q-20 9 -32.5 13.5t-29.5 4.5q-22 0 -38.5 -9t-38.5 -29v71 z" />
<glyph unicode="&#xd2;" horiz-adv-x="695" d="M135.5 67.5q-74.5 76.5 -74.5 227.5v101q0 151 75.5 227.5t213.5 76.5q137 0 211.5 -76.5t74.5 -227.5v-101q0 -151 -75.5 -227.5t-213.5 -76.5q-137 0 -211.5 76.5zM497 127q49 54 49 167v97q0 117 -49 172t-148 55q-100 0 -148.5 -55t-48.5 -172v-97q0 -113 48.5 -167 t148.5 -54q99 0 148 54zM196 878h108l111 -128h-80z" />
<glyph unicode="&#xd3;" horiz-adv-x="695" d="M135.5 67.5q-74.5 76.5 -74.5 227.5v101q0 151 75.5 227.5t213.5 76.5q137 0 211.5 -76.5t74.5 -227.5v-101q0 -151 -75.5 -227.5t-213.5 -76.5q-137 0 -211.5 76.5zM497 127q49 54 49 167v97q0 117 -49 172t-148 55q-100 0 -148.5 -55t-48.5 -172v-97q0 -113 48.5 -167 t148.5 -54q99 0 148 54zM372 878h107l-139 -128h-80z" />
<glyph unicode="&#xd4;" horiz-adv-x="695" d="M135.5 67.5q-74.5 76.5 -74.5 227.5v101q0 151 75.5 227.5t213.5 76.5q137 0 211.5 -76.5t74.5 -227.5v-101q0 -151 -75.5 -227.5t-213.5 -76.5q-137 0 -211.5 76.5zM497 127q49 54 49 167v97q0 117 -49 172t-148 55q-100 0 -148.5 -55t-48.5 -172v-97q0 -113 48.5 -167 t148.5 -54q99 0 148 54zM316 891h65l131 -146h-80l-83 90l-84 -90h-80z" />
<glyph unicode="&#xd5;" horiz-adv-x="695" d="M135.5 67.5q-74.5 76.5 -74.5 227.5v101q0 151 75.5 227.5t213.5 76.5q137 0 211.5 -76.5t74.5 -227.5v-101q0 -151 -75.5 -227.5t-213.5 -76.5q-137 0 -211.5 76.5zM497 127q49 54 49 167v97q0 117 -49 172t-148 55q-100 0 -148.5 -55t-48.5 -172v-97q0 -113 48.5 -167 t148.5 -54q99 0 148 54zM202 819q20 19 39 28t43 9q20 0 35.5 -5t35.5 -15q19 -9 32.5 -13.5t30.5 -4.5q23 0 39.5 9t37.5 29v-72q-35 -36 -82 -36q-21 0 -36.5 5t-35.5 15q-20 9 -32.5 13.5t-29.5 4.5q-22 0 -38.5 -9t-38.5 -29v71z" />
<glyph unicode="&#xd6;" horiz-adv-x="695" d="M135.5 67.5q-74.5 76.5 -74.5 227.5v101q0 151 75.5 227.5t213.5 76.5q137 0 211.5 -76.5t74.5 -227.5v-101q0 -151 -75.5 -227.5t-213.5 -76.5q-137 0 -211.5 76.5zM497 127q49 54 49 167v97q0 117 -49 172t-148 55q-100 0 -148.5 -55t-48.5 -172v-97q0 -113 48.5 -167 t148.5 -54q99 0 148 54zM199 854h85v-95h-85v95zM414 854h84v-95h-84v95z" />
<glyph unicode="&#xd7;" horiz-adv-x="509" d="M81 156l120 121l-120 120l54 54l120 -120l120 120l54 -54l-120 -120l120 -121l-54 -54l-120 120l-120 -120z" />
<glyph unicode="&#xd8;" horiz-adv-x="695" d="M636 396v-101q0 -151 -75.5 -227.5t-213.5 -76.5q-101 0 -169 42l-35 -53h-72l60 92q-70 78 -70 223v101q0 151 75.5 227.5t213.5 76.5q102 0 169 -42l35 54h71l-60 -92q71 -77 71 -224zM183 150l288 436q-45 32 -122 32q-100 0 -148.5 -55t-48.5 -172v-97q0 -92 31 -144 zM546 391q0 96 -33 150l-288 -436q45 -32 124 -32q99 0 148 54t49 167v97z" />
<glyph unicode="&#xd9;" horiz-adv-x="692" d="M144.5 60.5q-72.5 66.5 -72.5 186.5v443h91v-437q0 -179 183 -179t183 179v437h91v-443q0 -120 -72.5 -186.5t-201.5 -66.5t-201.5 66.5zM193 878h108l111 -128h-80z" />
<glyph unicode="&#xda;" horiz-adv-x="692" d="M144.5 60.5q-72.5 66.5 -72.5 186.5v443h91v-437q0 -179 183 -179t183 179v437h91v-443q0 -120 -72.5 -186.5t-201.5 -66.5t-201.5 66.5zM379 878h107l-139 -128h-80z" />
<glyph unicode="&#xdb;" horiz-adv-x="692" d="M144.5 60.5q-72.5 66.5 -72.5 186.5v443h91v-437q0 -179 183 -179t183 179v437h91v-443q0 -120 -72.5 -186.5t-201.5 -66.5t-201.5 66.5zM313 891h65l131 -146h-80l-83 90l-84 -90h-80z" />
<glyph unicode="&#xdc;" horiz-adv-x="692" d="M144.5 60.5q-72.5 66.5 -72.5 186.5v443h91v-437q0 -179 183 -179t183 179v437h91v-443q0 -120 -72.5 -186.5t-201.5 -66.5t-201.5 66.5zM196 854h85v-95h-85v95zM411 854h84v-95h-84v95z" />
<glyph unicode="&#xdd;" horiz-adv-x="580" d="M335 278v-278h-90v279l-239 411h102l183 -335l181 335h102zM323 878h107l-139 -128h-80z" />
<glyph unicode="&#xde;" horiz-adv-x="637" d="M545 515.5q61 -52.5 61 -154.5q0 -100 -60.5 -153t-176.5 -53h-206v-155h-91v690h91v-122h206q115 0 176 -52.5zM480.5 266q35.5 30 35.5 94q0 67 -36 97t-114 30h-203v-251h208q74 0 109.5 30z" />
<glyph unicode="&#xdf;" horiz-adv-x="560" d="M277 71h31q47 0 71.5 14.5t34 47t9.5 92.5q0 61 -10 94t-36 48t-76 15h-25v75h31q57 0 82 19.5t25 61.5q0 44 -30 64t-94 20q-73 0 -105.5 -27.5t-32.5 -92.5v-502h-85v493q0 103 53 154t167 51q102 0 157 -40.5t55 -116.5q0 -44 -18 -72.5t-55 -45.5q47 -19 64.5 -62 t17.5 -133q0 -88 -17.5 -137.5t-59.5 -72t-118 -22.5h-36v75z" />
<glyph unicode="&#xe0;" horiz-adv-x="549" d="M425 471.5q57 -47.5 57 -137.5v-334h-83v58q-53 -64 -167 -64q-93 0 -141.5 39.5t-48.5 114.5q0 72 50 110.5t146 38.5h159v35q0 116 -135 116q-59 0 -89.5 -22t-30.5 -62v-3h-83v3q0 72 54 113.5t148 41.5q107 0 164 -47.5zM361 95q36 32 36 98v40h-145 q-65 0 -95.5 -20.5t-30.5 -63.5q0 -44 30 -65t93 -21q76 0 112 32zM111 700h108l111 -128h-80z" />
<glyph unicode="&#xe1;" horiz-adv-x="549" d="M425 471.5q57 -47.5 57 -137.5v-334h-83v58q-53 -64 -167 -64q-93 0 -141.5 39.5t-48.5 114.5q0 72 50 110.5t146 38.5h159v35q0 116 -135 116q-59 0 -89.5 -22t-30.5 -62v-3h-83v3q0 72 54 113.5t148 41.5q107 0 164 -47.5zM361 95q36 32 36 98v40h-145 q-65 0 -95.5 -20.5t-30.5 -63.5q0 -44 30 -65t93 -21q76 0 112 32zM292 700h107l-139 -128h-80z" />
<glyph unicode="&#xe2;" horiz-adv-x="549" d="M425 471.5q57 -47.5 57 -137.5v-334h-83v58q-53 -64 -167 -64q-93 0 -141.5 39.5t-48.5 114.5q0 72 50 110.5t146 38.5h159v35q0 116 -135 116q-59 0 -89.5 -22t-30.5 -62v-3h-83v3q0 72 54 113.5t148 41.5q107 0 164 -47.5zM361 95q36 32 36 98v40h-145 q-65 0 -95.5 -20.5t-30.5 -63.5q0 -44 30 -65t93 -21q76 0 112 32zM231 713h65l131 -146h-80l-83 90l-84 -90h-80z" />
<glyph unicode="&#xe3;" horiz-adv-x="549" d="M425 471.5q57 -47.5 57 -137.5v-334h-83v58q-53 -64 -167 -64q-93 0 -141.5 39.5t-48.5 114.5q0 72 50 110.5t146 38.5h159v35q0 116 -135 116q-59 0 -89.5 -22t-30.5 -62v-3h-83v3q0 72 54 113.5t148 41.5q107 0 164 -47.5zM361 95q36 32 36 98v40h-145 q-65 0 -95.5 -20.5t-30.5 -63.5q0 -44 30 -65t93 -21q76 0 112 32zM117 641q20 19 39 28t43 9q20 0 35.5 -5t35.5 -15q19 -9 32.5 -13.5t30.5 -4.5q23 0 39.5 9t37.5 29v-72q-35 -36 -82 -36q-21 0 -36.5 5t-35.5 15q-20 9 -32.5 13.5t-29.5 4.5q-22 0 -38.5 -9t-38.5 -29 v71z" />
<glyph unicode="&#xe4;" horiz-adv-x="549" d="M425 471.5q57 -47.5 57 -137.5v-334h-83v58q-53 -64 -167 -64q-93 0 -141.5 39.5t-48.5 114.5q0 72 50 110.5t146 38.5h159v35q0 116 -135 116q-59 0 -89.5 -22t-30.5 -62v-3h-83v3q0 72 54 113.5t148 41.5q107 0 164 -47.5zM361 95q36 32 36 98v40h-145 q-65 0 -95.5 -20.5t-30.5 -63.5q0 -44 30 -65t93 -21q76 0 112 32zM114 676h85v-95h-85v95zM329 676h84v-95h-84v95z" />
<glyph unicode="&#xe5;" horiz-adv-x="549" d="M425 471.5q57 -47.5 57 -137.5v-334h-83v58q-53 -64 -167 -64q-93 0 -141.5 39.5t-48.5 114.5q0 72 50 110.5t146 38.5h159v35q0 116 -135 116q-59 0 -89.5 -22t-30.5 -62v-3h-83v3q0 72 54 113.5t148 41.5q107 0 164 -47.5zM361 95q36 32 36 98v40h-145 q-65 0 -95.5 -20.5t-30.5 -63.5q0 -44 30 -65t93 -21q76 0 112 32zM196.5 588.5q-26.5 26.5 -26.5 67.5t26.5 68t67.5 27q40 0 67 -27t27 -68q0 -40 -26.5 -67t-67.5 -27t-67.5 26.5zM300 619q14 15 14 37q0 23 -14 37.5t-36 14.5t-36 -14.5t-14 -37.5q0 -22 14 -37t36 -15 t36 15z" />
<glyph unicode="&#xe6;" horiz-adv-x="901" d="M482 235v-4q0 -166 155 -166q58 0 90.5 27t34.5 70v3h84v-4q-1 -47 -26 -86t-72 -61.5t-111 -22.5q-133 0 -195 86q-59 -84 -197 -84q-96 0 -149.5 41t-53.5 115q0 72 50 110.5t146 38.5h159v34q0 116 -135 116q-59 0 -89.5 -22t-30.5 -62v-3h-83v3q0 72 54 113.5 t148 41.5q131 0 187 -71q29 36 73.5 55t101.5 19q106 0 166 -58.5t60 -169.5v-59h-367zM522.5 410.5q-36.5 -36.5 -40.5 -111.5h282v8q0 71 -36 105.5t-104 34.5q-65 0 -101.5 -36.5zM361 96.5q36 33.5 36 98.5v40h-145q-64 0 -95 -20.5t-31 -64.5q0 -43 32 -65t96 -22 q71 0 107 33.5z" />
<glyph unicode="&#xe7;" horiz-adv-x="553" d="M418 331v5q0 52 -34 81t-97 29q-150 0 -150 -166v-47q0 -167 150 -167q63 0 97 29t34 80v4h83v-4q0 -73 -42.5 -120.5t-118.5 -59.5l-65 -147h-86l74 144q-100 6 -155.5 67t-55.5 172v51q0 117 62 178.5t172 61.5q101 0 158 -49.5t57 -136.5v-5h-83z" />
<glyph unicode="&#xe8;" horiz-adv-x="557" d="M137 235v-4q0 -166 155 -166q59 0 91.5 27.5t33.5 69.5v3h84v-4q-1 -48 -26.5 -86.5t-73 -61t-111.5 -22.5q-112 0 -175 62.5t-63 182.5v41q0 118 60 181.5t167 63.5q105 0 165 -58.5t60 -168.5v-60h-367zM177.5 410.5q-36.5 -36.5 -40.5 -111.5h282v9q0 70 -36.5 104.5 t-103.5 34.5q-65 0 -101.5 -36.5zM126 700h108l111 -128h-80z" />
<glyph unicode="&#xe9;" horiz-adv-x="557" d="M137 235v-4q0 -166 155 -166q59 0 91.5 27.5t33.5 69.5v3h84v-4q-1 -48 -26.5 -86.5t-73 -61t-111.5 -22.5q-112 0 -175 62.5t-63 182.5v41q0 118 60 181.5t167 63.5q105 0 165 -58.5t60 -168.5v-60h-367zM177.5 410.5q-36.5 -36.5 -40.5 -111.5h282v9q0 70 -36.5 104.5 t-103.5 34.5q-65 0 -101.5 -36.5zM305 700h107l-139 -128h-80z" />
<glyph unicode="&#xea;" horiz-adv-x="557" d="M137 235v-4q0 -166 155 -166q59 0 91.5 27.5t33.5 69.5v3h84v-4q-1 -48 -26.5 -86.5t-73 -61t-111.5 -22.5q-112 0 -175 62.5t-63 182.5v41q0 118 60 181.5t167 63.5q105 0 165 -58.5t60 -168.5v-60h-367zM177.5 410.5q-36.5 -36.5 -40.5 -111.5h282v9q0 70 -36.5 104.5 t-103.5 34.5q-65 0 -101.5 -36.5zM246 713h65l131 -146h-80l-83 90l-84 -90h-80z" />
<glyph unicode="&#xeb;" horiz-adv-x="557" d="M137 235v-4q0 -166 155 -166q59 0 91.5 27.5t33.5 69.5v3h84v-4q-1 -48 -26.5 -86.5t-73 -61t-111.5 -22.5q-112 0 -175 62.5t-63 182.5v41q0 118 60 181.5t167 63.5q105 0 165 -58.5t60 -168.5v-60h-367zM177.5 410.5q-36.5 -36.5 -40.5 -111.5h282v9q0 70 -36.5 104.5 t-103.5 34.5q-65 0 -101.5 -36.5zM129 676h85v-95h-85v95zM344 676h84v-95h-84v95z" />
<glyph unicode="&#xec;" horiz-adv-x="234" d="M74 512h85v-512h-85v512zM-36 700h108l111 -128h-80z" />
<glyph unicode="&#xed;" horiz-adv-x="234" d="M74 512h85v-512h-85v512zM160 700h107l-139 -128h-80z" />
<glyph unicode="&#xee;" horiz-adv-x="234" d="M74 512h85v-512h-85v512zM84 713h65l131 -146h-80l-83 90l-84 -90h-80z" />
<glyph unicode="&#xef;" horiz-adv-x="234" d="M74 512h85v-512h-85v512zM-33 676h85v-95h-85v95zM182 676h84v-95h-84v95z" />
<glyph unicode="&#xf0;" horiz-adv-x="548" d="M476 364q20 -53 20 -115v-29q0 -110 -59 -170.5t-164 -60.5q-104 0 -162.5 60t-58.5 169v29q0 105 55.5 165t152.5 60q38 0 65 -12l-72 89l-119 -32l-17 62l91 24l-72 89h98l55 -68l124 33l17 -61l-97 -26l74 -91q49 -62 69 -115zM412 247q0 74 -35 112.5t-103 38.5 t-103.5 -38.5t-35.5 -111.5v-29q0 -75 35.5 -114t103.5 -39t103 39t35 114v28z" />
<glyph unicode="&#xf1;" d="M67 512h84v-69q27 37 69 56t94 19q91 0 141 -52t50 -144v-322h-85v311q0 65 -32.5 98t-94.5 33q-64 0 -102.5 -38t-38.5 -104v-300h-85v512zM140 641q20 19 39 28t43 9q20 0 35.5 -5t35.5 -15q19 -9 32.5 -13.5t30.5 -4.5q23 0 39.5 9t37.5 29v-72q-35 -36 -82 -36 q-21 0 -36.5 5t-35.5 15q-20 9 -32.5 13.5t-29.5 4.5q-22 0 -38.5 -9t-38.5 -29v71z" />
<glyph unicode="&#xf2;" d="M114.5 52.5q-62.5 61.5 -62.5 178.5v51q0 117 62.5 178.5t172.5 61.5q109 0 171 -62t62 -178v-51q0 -117 -62 -178.5t-171 -61.5q-110 0 -172.5 61.5zM435 233v47q0 166 -149 166t-149 -166v-47q0 -167 149 -167t149 167zM133 700h108l111 -128h-80z" />
<glyph unicode="&#xf3;" d="M114.5 52.5q-62.5 61.5 -62.5 178.5v51q0 117 62.5 178.5t172.5 61.5q109 0 171 -62t62 -178v-51q0 -117 -62 -178.5t-171 -61.5q-110 0 -172.5 61.5zM435 233v47q0 166 -149 166t-149 -166v-47q0 -167 149 -167t149 167zM313 700h107l-139 -128h-80z" />
<glyph unicode="&#xf4;" d="M114.5 52.5q-62.5 61.5 -62.5 178.5v51q0 117 62.5 178.5t172.5 61.5q109 0 171 -62t62 -178v-51q0 -117 -62 -178.5t-171 -61.5q-110 0 -172.5 61.5zM435 233v47q0 166 -149 166t-149 -166v-47q0 -167 149 -167t149 167zM253 713h65l131 -146h-80l-83 90l-84 -90h-80z " />
<glyph unicode="&#xf5;" d="M114.5 52.5q-62.5 61.5 -62.5 178.5v51q0 117 62.5 178.5t172.5 61.5q109 0 171 -62t62 -178v-51q0 -117 -62 -178.5t-171 -61.5q-110 0 -172.5 61.5zM435 233v47q0 166 -149 166t-149 -166v-47q0 -167 149 -167t149 167zM139 641q20 19 39 28t43 9q20 0 35.5 -5 t35.5 -15q19 -9 32.5 -13.5t30.5 -4.5q23 0 39.5 9t37.5 29v-72q-35 -36 -82 -36q-21 0 -36.5 5t-35.5 15q-20 9 -32.5 13.5t-29.5 4.5q-22 0 -38.5 -9t-38.5 -29v71z" />
<glyph unicode="&#xf6;" d="M114.5 52.5q-62.5 61.5 -62.5 178.5v51q0 117 62.5 178.5t172.5 61.5q109 0 171 -62t62 -178v-51q0 -117 -62 -178.5t-171 -61.5q-110 0 -172.5 61.5zM435 233v47q0 166 -149 166t-149 -166v-47q0 -167 149 -167t149 167zM136 676h85v-95h-85v95zM351 676h84v-95h-84v95z " />
<glyph unicode="&#xf7;" horiz-adv-x="509" d="M216.5 387.5q-15.5 15.5 -15.5 38.5q0 22 15.5 37.5t37.5 15.5q23 0 38.5 -15.5t15.5 -37.5q0 -23 -15.5 -38.5t-38.5 -15.5q-22 0 -37.5 15.5zM53 316h403v-80h-403v80zM216.5 90.5q-15.5 15.5 -15.5 37.5q0 23 15.5 38.5t37.5 15.5q23 0 38.5 -15.5t15.5 -38.5 q0 -22 -15.5 -37.5t-38.5 -15.5q-22 0 -37.5 15.5z" />
<glyph unicode="&#xf8;" d="M520 282v-51q0 -117 -62 -178.5t-171 -61.5q-74 0 -129 29l-34 -50h-64l56 81q-64 62 -64 180v51q0 117 62.5 178.5t172.5 61.5q76 0 129 -30l32 46h64l-54 -78q62 -64 62 -178zM164 122l207 304q-35 20 -85 20q-149 0 -149 -166v-47q0 -70 27 -111zM435 280 q0 67 -25 108l-207 -303q32 -19 83 -19q149 0 149 167v47z" />
<glyph unicode="&#xf9;" d="M123 47.5q-56 54.5 -56 155.5v309h85v-300q0 -143 134 -143q69 0 101.5 35.5t32.5 107.5v300h85v-309q0 -101 -56.5 -155.5t-163.5 -54.5q-106 0 -162 54.5zM133 700h108l111 -128h-80z" />
<glyph unicode="&#xfa;" d="M123 47.5q-56 54.5 -56 155.5v309h85v-300q0 -143 134 -143q69 0 101.5 35.5t32.5 107.5v300h85v-309q0 -101 -56.5 -155.5t-163.5 -54.5q-106 0 -162 54.5zM314 700h107l-139 -128h-80z" />
<glyph unicode="&#xfb;" d="M123 47.5q-56 54.5 -56 155.5v309h85v-300q0 -143 134 -143q69 0 101.5 35.5t32.5 107.5v300h85v-309q0 -101 -56.5 -155.5t-163.5 -54.5q-106 0 -162 54.5zM253 713h65l131 -146h-80l-83 90l-84 -90h-80z" />
<glyph unicode="&#xfc;" d="M123 47.5q-56 54.5 -56 155.5v309h85v-300q0 -143 134 -143q69 0 101.5 35.5t32.5 107.5v300h85v-309q0 -101 -56.5 -155.5t-163.5 -54.5q-106 0 -162 54.5zM136 676h85v-95h-85v95zM351 676h84v-95h-84v95z" />
<glyph unicode="&#xfd;" horiz-adv-x="513" d="M500 512l-221 -563q-21 -54 -61 -78t-105 -24h-36v77h36q45 0 67 13t34 46l6 17l-207 512h91l157 -403l150 403h89zM289 700h107l-139 -128h-80z" />
<glyph unicode="&#xfe;" horiz-adv-x="580" d="M67 690h85v-247q25 37 67 58t95 21q97 0 155.5 -62t58.5 -176v-54q0 -115 -58.5 -177t-155.5 -62q-55 0 -96 19t-67 56v-219h-84v843zM406 108q37 42 37 126v46q0 84 -37 125t-106 41t-108.5 -42.5t-39.5 -114.5v-67q0 -71 40 -113.5t110 -42.5q67 0 104 42z" />
<glyph unicode="&#xff;" horiz-adv-x="513" d="M500 512l-221 -563q-21 -54 -61 -78t-105 -24h-36v77h36q45 0 67 13t34 46l6 17l-207 512h91l157 -403l150 403h89zM106 676h85v-95h-85v95zM321 676h84v-95h-84v95z" />
<glyph unicode="&#x152;" horiz-adv-x="1060" d="M636 609v-218h325v-81h-325v-229h380v-81h-468v60q-75 -69 -203 -69q-137 0 -210.5 76.5t-73.5 227.5v101q0 151 74.5 227.5t211.5 76.5q127 0 201 -68v58h468v-81h-380zM546 391q0 117 -49 172t-148 55q-100 0 -148.5 -55t-48.5 -172v-97q0 -113 48.5 -167t148.5 -54 q99 0 148 54t49 167v97z" />
<glyph unicode="&#x153;" horiz-adv-x="939" d="M520 235v-4q0 -166 155 -166q58 0 90.5 27.5t34.5 69.5v3h84v-4q-1 -48 -26.5 -86.5t-73 -61t-111.5 -22.5q-133 0 -195 86q-30 -43 -78.5 -64.5t-112.5 -21.5q-110 0 -172.5 61.5t-62.5 178.5v51q0 117 62.5 178.5t172.5 61.5q63 0 111.5 -21.5t78.5 -63.5 q29 42 76 63.5t108 21.5q106 0 166 -58.5t60 -168.5v-60h-367zM560.5 410.5q-36.5 -36.5 -40.5 -111.5h282v9q0 70 -36.5 104.5t-103.5 34.5q-65 0 -101.5 -36.5zM435 280q0 166 -149 166t-149 -166v-47q0 -167 149 -167t149 167v47z" />
<glyph unicode="&#x178;" horiz-adv-x="580" d="M335 278v-278h-90v279l-239 411h102l183 -335l181 335h102zM140 854h85v-95h-85v95zM355 854h84v-95h-84v95z" />
<glyph unicode="&#x2c6;" horiz-adv-x="500" d="M217 713h65l131 -146h-80l-83 90l-84 -90h-80z" />
<glyph unicode="&#x2dc;" horiz-adv-x="500" d="M103 646q20 19 39 28t43 9q20 0 35.5 -5t35.5 -15q19 -9 32.5 -13.5t30.5 -4.5q23 0 39.5 9t37.5 29v-72q-34 -36 -82 -36q-21 0 -36.5 5t-35.5 15q-20 9 -32.5 13.5t-29.5 4.5q-22 0 -38.5 -9t-38.5 -29v71z" />
<glyph unicode="&#x2000;" horiz-adv-x="445" />
<glyph unicode="&#x2001;" horiz-adv-x="891" />
<glyph unicode="&#x2002;" horiz-adv-x="445" />
<glyph unicode="&#x2003;" horiz-adv-x="891" />
<glyph unicode="&#x2004;" horiz-adv-x="297" />
<glyph unicode="&#x2005;" horiz-adv-x="222" />
<glyph unicode="&#x2006;" horiz-adv-x="148" />
<glyph unicode="&#x2007;" horiz-adv-x="148" />
<glyph unicode="&#x2008;" horiz-adv-x="111" />
<glyph unicode="&#x2009;" horiz-adv-x="178" />
<glyph unicode="&#x200a;" horiz-adv-x="49" />
<glyph unicode="&#x2010;" horiz-adv-x="422" d="M52 387h318v-81h-318v81z" />
<glyph unicode="&#x2011;" horiz-adv-x="422" d="M52 387h318v-81h-318v81z" />
<glyph unicode="&#x2012;" horiz-adv-x="422" d="M52 387h318v-81h-318v81z" />
<glyph unicode="&#x2013;" horiz-adv-x="482" d="M0 387h482v-81h-482v81z" />
<glyph unicode="&#x2014;" horiz-adv-x="963" d="M0 387h963v-81h-963v81z" />
<glyph unicode="&#x2018;" horiz-adv-x="177" d="M48 654l81 73v-251h-81v178z" />
<glyph unicode="&#x2019;" horiz-adv-x="177" d="M48 690h81v-178l-81 -73v251z" />
<glyph unicode="&#x201a;" horiz-adv-x="177" d="M48 107h81v-179l-81 -73v252z" />
<glyph unicode="&#x201c;" horiz-adv-x="338" d="M47 654l82 73v-251h-82v178zM208 654l82 73v-251h-82v178z" />
<glyph unicode="&#x201d;" horiz-adv-x="338" d="M48 691h81v-179l-81 -73v252zM209 691h82v-179l-82 -73v252z" />
<glyph unicode="&#x201e;" horiz-adv-x="337" d="M208 107h81v-179l-81 -73v252zM48 107h81v-179l-81 -73v252z" />
<glyph unicode="&#x2022;" horiz-adv-x="461" d="M137.5 215.5q-36.5 36.5 -36.5 92.5t36.5 92.5t92.5 36.5t93 -36.5t37 -92.5t-37 -92.5t-93 -36.5t-92.5 36.5z" />
<glyph unicode="&#x2026;" horiz-adv-x="703" d="M48 107h102v-107h-102v107zM553 107h102v-107h-102v107zM301 107h102v-107h-102v107z" />
<glyph unicode="&#x202f;" horiz-adv-x="178" />
<glyph unicode="&#x2039;" horiz-adv-x="323" d="M23 264l233 205v-91l-132 -114l132 -114v-91z" />
<glyph unicode="&#x203a;" horiz-adv-x="335" d="M67 150l132 114l-132 114v91l234 -205l-234 -205v91z" />
<glyph unicode="&#x205f;" horiz-adv-x="222" />
<glyph unicode="&#x20ac;" horiz-adv-x="606" d="M161 53.5q-60 63.5 -60 176.5v21h-67v64h67v65h-67v64h67v23q0 109 60 171t171 62q93 0 150 -45t61 -126h-81q-15 92 -129 92q-143 0 -143 -153v-24h244l-13 -64h-231v-65h217l-13 -64h-204v-23q0 -159 145 -159q57 0 89 23.5t39 68.5h84q-6 -81 -63.5 -126t-150.5 -45 q-112 0 -172 63.5z" />
<glyph unicode="&#x2122;" horiz-adv-x="902" d="M168 629h-132v61h333v-61h-132v-333h-69v333zM433 690h63l135 -254h4l131 254h63v-394h-64v257h-3l-106 -199h-48l-108 199h-3v-257h-64v394z" />
<glyph unicode="&#x25fc;" horiz-adv-x="510" d="M0 510h510v-510h-510v510z" />
<glyph unicode="&#xfb01;" horiz-adv-x="561" d="M221.5 608.5q-19.5 -18.5 -19.5 -57.5v-39h128v-64h-128v-448h-85v448h-72v64h72v36q0 69 39 105.5t113 36.5h61v-63h-47q-42 0 -61.5 -18.5zM400 689h85v-92h-85v92zM400 512h85v-512h-85v512z" />
<glyph unicode="&#xfb02;" horiz-adv-x="628" d="M221.5 608.5q-19.5 -18.5 -19.5 -57.5v-39h128v-64h-128v-448h-85v448h-72v64h72v36q0 69 39 105.5t113 36.5h61v-63h-47q-42 0 -61.5 -18.5zM431.5 37.5q-38.5 37.5 -38.5 116.5v536h85v-531q0 -45 18.5 -64t64.5 -19h44v-76h-55q-80 0 -118.5 37.5z" />
</font>
</defs>
</svg>
