<svg version="1.1" id="svg8" xmlns="http://www.w3.org/2000/svg" x="0" y="0" viewBox="0 0 477 581.2" xml:space="preserve"><style>.st1{fill:#1d1f20}</style><g id="layer1"><g id="g52"><path id="path56" d="M270.9 10.5c-9-.1-21 .2-35.8.7-19.7.7-24.2 1.1-25.9 2.6-.6.5-2.5 1.2-4.1 1.4-4.1.6-13.4 4.6-18.4 7.9-2.3 1.5-5 3.1-6 3.6-2 1-3.2 1.7-7.6 4.5-1.5 1-4.5 2.2-6.8 2.8-5.6 1.4-13.8 4.6-16.2 6.3-2.8 1.9-9 4.6-10.8 4.6-3.2 0-9.6 5.2-9.6 7.8 0 .5-.8 2-1.8 3.4s-2 3.4-2.3 4.5c-.4 1.9-7.1 9.3-12.7 14-2.4 2-2.7 2.8-2.8 5.6 0 1.8-.5 5-1.1 7-.6 2-1.1 5.1-1.1 6.8 0 1.9-.7 4.2-1.8 6.1-8.7 14.5-9.3 16.4-11.6 35.2-.8 6.5-2.4 11.9-4.9 16.9-1.8 3.6-1.9 4.6-1.9 14.3 0 5.8-.3 11.1-.7 11.8-1.2 2.2-2.4 30.6-1.5 35.3.4 2.3 1 7.4 1.4 11.3.6 6.6.9 7.8 4.5 14.6 2.8 5.5 3.9 8.2 3.9 10.5 0 2 .8 4.7 2.2 7.5 1.2 2.4 2.2 5 2.3 5.7 0 .7 1.2 5 2.7 9.5 2.2 6.5 3.3 8.9 6 12 1.8 2.1 3.3 4.3 3.3 5 0 2 1.9 5.1 4.8 7.9 1.5 1.4 2.7 3.3 2.7 4.1 0 .9 1.2 3.4 2.7 5.7 1.5 2.3 3.4 6.5 4.1 9.4.8 2.9 2.1 7.2 2.9 9.6 1.4 4 1.5 6.3 1.5 34.6 0 27-.2 30.9-1.4 35.8-1.4 5.4-2.5 8.2-4.1 10.3-1.5 1.9-4.1 13.8-4.2 18.8-.1 6.8-1 9.3-8.5 22.3-3.6 6.3-6.6 11.7-6.6 12 0 3.5-15.8 20.3-20.5 21.6-1.3.4-2.5 1.3-2.6 2-.2 1.1.5 1.3 4 1.5 4.9.3 6.8 1.9 4.8 4-.9.9-4 1.3-13.5 1.8-11 .6-12.8.8-16.6 2.6-2.4 1.1-5.4 2.2-6.7 2.5-5.9 1.2-16.7 5.5-18.9 7.6-1.3 1.2-4.4 3.3-7 4.5-4.6 2.3-4.7 2.3-16.7 2.3H.2c-.2 5.1-.2 14.5-.2 32.8v37.8h477v-42.7c0-20.9.1-31.7-.3-37.4l-5.6-.4c-3.2-.2-6.9-.9-8.2-1.6s-3.5-1.2-5-1.2-3.7-.5-5.1-1c-12.1-5.1-16.5-5.7-49.7-6.4-23.9-.5-26.7-.7-31.5-2.2-2.9-.9-7.2-1.6-9.6-1.6-5.8 0-8.3-1.8-11.1-7.9-1.2-2.6-2.5-4.9-2.9-5.2-.4-.3-.8-3.3-.8-6.8 0-5.6-.2-6.3-1.5-6.8-.8-.3-8.2-.4-16.3-.3-15.3.2-17.1-.1-23.4-3.4-1-.5-4.4-1.7-7.5-2.5-5.2-1.4-11.1-4.4-20.7-10.2-2-1.2-8.4-6.9-14.2-12.5s-12.4-11.8-14.6-13.6c-2.3-1.9-5.6-4.9-7.4-6.8-1.8-1.9-3.8-3.4-4.5-3.4-2.4 0-14-10.1-30.2-26.3-14.3-14.3-16.6-16.8-19.4-22.1-1.7-3.3-4.1-7-5.3-8.3-5.1-5.5-6-7.6-6-14.6 0-7.5-.8-10.4-4.1-14.6-1.3-1.6-2.8-4.6-3.3-6.6-1.2-4.8-1.2-25.6 0-27.8.5-.9 1.1-3.5 1.3-5.7.4-4.5 2-6.3 4.1-4.6 1.6 1.3 1.6 11 0 13.1-1.5 2-1.5 16.1 0 21.9 1.1 4.2 1.7 5.3 5.1 9.5 1.4 1.8 1.7 3.3 2.1 10.1.4 8.9 1.2 11 6.2 16.6 1.6 1.9 4.2 5.7 5.6 8.6 2.2 4.4 4.9 7.6 17.7 20.5 8.3 8.4 16.5 16.1 18.3 17.1 1.8 1 3.8 2.7 4.6 3.7.8 1 2.8 2.4 4.4 3.1 3 1.4 8.2 5.9 27.5 24.2 5.9 5.6 11.7 10.8 12.9 11.7 5.8 4.2 17 10 22.4 11.5 3.3.9 6.3 2 6.8 2.3.4.4 3 1.3 5.6 2.1 4.1 1.2 7.6 1.5 24.2 1.6 12.9.1 19.9.4 20.8 1 1.1.7 2 .6 4-.4 1.5-.7 3.1-1.3 3.6-1.3 2 0 17.1-7.6 20.8-10.5 1.4-1.1 4.5-2.6 6.8-3.2 3.6-1 4.4-1.7 6.5-4.8 1.3-2 2.9-4.9 3.7-6.5.7-1.6 3.7-4.9 6.6-7.5 2.9-2.6 5.6-5.1 6.1-5.7.5-.6 2.3-2.6 4.1-4.5 5-5.2 5.3-6 5.4-10.9 0-2.5.4-6.2.8-8.3.4-2.1 1.1-5.8 1.5-8.3.9-5.6 2.2-8 6.8-12.8 2.5-2.6 4.1-5.1 5.2-8.2 1.9-5.4 4.7-10.4 8-14.1 1.7-1.9 2.5-3.6 2.5-5.1 0-2.9 1.6-6.1 5.4-10.7 2.5-3 3.2-4.6 4.1-9.4.7-3.9 1.6-6.4 2.8-7.6 2.5-2.7 3.4-4.8 4.2-9.4.9-5.5.9-26.1 0-30.7-.4-2.1-1-5.3-1.3-7.1-.4-2.5-1-3.6-2.3-4.1-1.2-.5-1.7-1.4-1.7-2.9 0-2.4-1-4.7-3.3-7.2-1.5-1.7-1.6-2.4-1.4-14.5.2-10.5.4-13.4 1.6-16.2.8-1.9 1.6-5.4 1.9-7.7.4-3.6.2-4.8-1.4-8-1.1-2.1-1.9-4.4-1.9-5.2 0-.8-.5-2-1.1-2.8-1.5-1.9-1.4-2.3.4-2.8 2.1-.6 2-5.4-.4-12.5-1-3.1-1.9-6.4-1.9-7.3 0-2.7-2-6.8-6.5-13.5l-4.2-6.1-.5-9.6c-.3-5.3-.9-10.5-1.3-11.5s-1.2-3.4-1.7-5.3-1.4-4.9-2-6.8c-.6-1.9-1.1-3.9-1.1-4.5 0-.6-2.9-7-6.5-14.2-7.5-15.1-14.4-25-21.8-31-16.2-13-19.4-15.5-20.3-15.5-.4 0-1.6-1.1-2.7-2.3-2.3-2.8-5.8-5.4-9.2-7-1.3-.6-4.9-3.4-8-6.2-6.2-5.6-11.6-9.6-14.6-10.9-1.1-.5-3.4-1.8-5.1-3-3.6-2.4-9.5-5.1-11.2-5.1-.6 0-2-.6-3.1-1.4-1.1-.8-2.8-1.6-3.9-1.9-8.7-2.1-11.6-2.9-19.5-5.1-1.4-.4-6-1.4-10.1-2.2s-9.7-2-12.4-2.6c-2.8-.5-8.9-.8-17.9-.9z" fill="#a2a2a2"/><path id="path42" class="st1" d="M256.6 530.5c-.9-1.1-1.6-2.8-1.6-3.8 0-2.2-2.3-4.6-5-5.2-1.1-.3-3.1-1.2-4.3-2.2-5.6-4.1-13.3-5.9-17.7-4.1-3.1 1.3-4.6 0-2.5-2.3 1.3-1.5 2-1.6 8.2-1.3 7.3.4 11.3 1.8 14.6 5.4 1 1.1 2.6 1.9 3.7 1.9 2.3 0 6.1 3.5 6.1 5.6 0 .9.5 2.3 1.2 3.2 1.1 1.5 1.7 1.7 9.3 1.7h8.2l2.3-4c1.3-2.2 3.6-5.2 5.2-6.7 3.4-3.1 6.3-3.7 16.2-3.4 5.4.2 6.8.5 6.8 1.4 0 .9-1.6 1.2-8.3 1.6-4.5.3-9.2.9-10.4 1.5-2.2 1-5.8 5.8-7.6 10.1l-1.1 2.6H269c-10.9-.1-10.9-.1-12.4-2z"/><path id="path40" class="st1" d="M0 508.1v-2.6h11.3c10.6 0 11.5-.1 15.1-1.9 2.1-1.1 4.9-3 6.2-4.4 2.4-2.4 7.2-4.4 19.2-8 3.1-.9 6.9-2.3 8.5-3.1 1.7-.9 5.2-1.6 8.4-1.9 3-.2 5.5-.7 5.5-1 0-1.4 6.3-7.5 8.8-8.5 1.6-.7 5.5-3.9 8.9-7.4 6.2-6.3 7.8-8.6 7.8-10.7 0-.7 1.9-4.4 4.1-8.4 2.3-3.9 4.1-7.6 4.1-8.2s1-2 2.2-3.1c3.1-2.7 5.3-8.9 5.3-14.8 0-5.7 3.1-18.3 5.2-21.2.8-1.2 2.2-4.7 3.1-7.9 1.4-5.3 1.5-8 1.5-33.8 0-25.9-.1-28.3-1.5-32.3-.8-2.4-2-6.6-2.7-9.3-.7-2.8-1.8-5.9-2.6-7-.8-1.1-2.5-4-3.7-6.5-1.3-2.5-3.4-5.9-4.8-7.5-1.4-1.7-3.9-5.6-5.7-8.8-1.7-3.2-3.6-6.3-4.1-7-1.1-1.3-5.6-14.9-5.6-16.8 0-.7-1-3.2-2.3-5.7-1.4-2.8-2.3-5.6-2.3-7.5 0-2.2-1.1-5.2-3.9-10.6-3.5-6.9-3.9-8.1-4.5-14.8-.3-4-1-9.3-1.4-11.7-.9-5.1.3-37.9 1.6-40.2.4-.7.7-5.9.7-11.5 0-9.5.1-10.5 1.9-14 2.5-5 4-10.2 4.8-16.7 1.1-8.7 2-14.8 2.9-18.5.8-3.2 5.1-11.7 7.2-14.2 2-2.3 3.4-6 3.4-8.8 0-1.6.5-4.6 1.1-6.6.6-2 1.1-5 1.1-6.7 0-3.5 2.1-7.3 5-9.1 3.7-2.3 9.2-8.5 11.2-12.5 3.4-7.1 4.2-8.4 7.7-11.9 2.8-2.9 4.5-3.9 9.4-5.5 3.3-1.1 8-3.1 10.6-4.5 2.5-1.4 7.5-3.4 11-4.5 9.1-2.9 15.8-6.3 25.5-12.8 2.7-1.8 5.4-3.3 5.9-3.3s2.6-.8 4.5-1.8 5-2 6.9-2.3c1.8-.3 3.7-.9 4.3-1.4 1.8-1.5 8.6-2.1 30.9-2.8 32-1.1 50.5-.6 58.5 1.4 3.5.9 9.4 2.3 13.1 3.1 10.8 2.5 25.4 6.4 27.2 7.5 1 .5 3.4 1.4 5.4 2 2 .6 5.3 2.3 7.5 3.7 2.1 1.5 4.7 3 5.6 3.3 2.6 1 12.3 7.9 16.2 11.6 1.9 1.8 6.2 5.1 9.6 7.4 3.4 2.3 7.6 5.3 9.4 6.8 1.8 1.5 7.8 6.3 13.3 10.6 12.8 10.1 14.7 11.9 20.9 20.2 5.1 6.8 5.7 7.8 10.3 17.3 1.4 2.9 3.7 7.6 5.2 10.4 1.4 2.8 2.6 5.7 2.6 6.3s.5 2.6 1 4.2c3.2 9.1 4.9 17.7 5.2 25.4l.3 8.1 4.6 6.7c2.9 4.2 4.9 8 5.4 10.3.5 2 1.7 6.5 2.7 10.1 1.6 5.4 1.9 7.5 1.5 12.7-.3 5.5-.1 6.8 1.4 10.1 2.6 5.6 2.4 9.2-.9 21.2-.6 2.2-1.1 6.4-1.1 9.4s0 7.4-.1 9.9c-.1 4.1.1 4.8 2.6 8.1 1.5 2 2.8 3.9 2.8 4.3 0 .4.7 1.4 1.5 2.2 1 1 1.5 2.5 1.5 4.3 0 1.5.3 3.8.7 5.1 1.9 6.5 2.1 9.7 1.6 24.8-.6 16.8-1.2 19.8-4.9 23.6-1.2 1.3-2.1 3.6-2.9 7.8-.8 4.2-1.6 6.4-3 7.9-3.4 3.6-6.5 9.3-6.5 11.9 0 1.7-.7 3.3-2.5 5.3-3.4 3.8-6.6 9.5-8.1 14.4-.8 2.7-2.4 5.2-4.6 7.5-5 5.2-6.3 7.5-7.2 12.8-.4 2.7-1.1 6.6-1.6 8.6-.4 2.1-.8 5.8-.8 8.3-.1 4.9-.8 6.5-5.7 11.5-1.6 1.7-3.7 3.9-4.6 4.8-.9.9-3.6 3.6-6.1 6-2.5 2.3-5.4 5.9-6.4 7.9-3.4 6.7-7.6 11.3-11.2 12.2-1.8.5-6.8 3-11.2 5.7-4.4 2.7-8.4 4.8-8.9 4.8s-2 .6-3.3 1.4c-1.3.8-3.6 1.7-5.1 2-1.5.3-3.9 1.3-5.2 2.3-3 2.2-3.9 2.2-5.8.2-.9-.9-2.1-1.5-3.2-1.3-1.6.2-1.8.7-2 4.7-.2 3.9.1 5.1 2.6 10.1 1.6 3.1 3.2 5.9 3.6 6.2.4.3 2.8.6 5.3.6 2.6 0 7.3.8 10.9 1.9 6.1 1.8 7.2 1.9 27 1.9 27.6 0 36.9.9 48.1 4.6 4.8 1.6 9.5 2.9 10.5 2.9s3.7.7 6.1 1.5c2.3.8 5.6 1.5 7.3 1.5 3 0 3 0 3 2.7v2.7l-5.9-.4c-3.2-.2-6.9-.9-8.2-1.6-1.3-.7-3.5-1.2-5-1.2s-3.7-.5-5.1-1c-12.1-5.1-16.5-5.7-49.7-6.4-23.9-.5-26.7-.7-31.5-2.2-2.9-.9-7.2-1.6-9.6-1.6-5.8 0-8.3-1.8-11.1-7.9-1.2-2.6-2.5-4.9-2.9-5.2-.4-.3-.8-3.3-.8-6.8 0-5.6-.2-6.3-1.5-6.8-.8-.3-8.2-.4-16.3-.3-15.3.2-17.1-.1-23.4-3.4-1-.5-4.4-1.7-7.5-2.5-5.2-1.4-11.1-4.4-20.7-10.2-2-1.2-8.4-6.9-14.2-12.5-5.8-5.7-12.4-11.8-14.6-13.6-2.3-1.9-5.6-4.9-7.4-6.8-1.8-1.9-3.8-3.4-4.5-3.4-2.4 0-14-10.1-30.2-26.2-14.3-14.3-16.6-16.8-19.4-22.1-1.7-3.3-4.1-7-5.3-8.3-5.1-5.5-6-7.6-6-14.6 0-7.5-.8-10.4-4.1-14.6-1.3-1.6-2.8-4.6-3.3-6.6-1.2-4.8-1.2-25.6 0-27.8.5-.9 1.1-3.5 1.3-5.7.4-4.5 2-6.3 4.1-4.6 1.6 1.3 1.6 11 0 13.1-1.5 2-1.5 16.1 0 21.9 1.1 4.2 1.7 5.3 5.1 9.5 1.4 1.8 1.7 3.3 2.1 10.1.4 8.9 1.2 11 6.2 16.6 1.6 1.9 4.2 5.7 5.6 8.6 2.2 4.4 4.9 7.6 17.7 20.5 8.3 8.4 16.5 16.1 18.3 17.1s3.8 2.7 4.6 3.7 2.8 2.4 4.4 3.1c3 1.4 8.2 5.9 27.5 24.2 5.9 5.6 11.7 10.8 12.9 11.7 5.8 4.2 17 10 22.4 11.5 3.3.9 6.3 2 6.8 2.3.4.4 3 1.3 5.6 2.1 4.1 1.2 7.6 1.5 24.2 1.6 12.9.1 19.9.4 20.8 1 1.1.7 2 .6 4-.4 1.5-.7 3.1-1.3 3.6-1.3 2 0 17.1-7.6 20.8-10.5 1.4-1.1 4.5-2.6 6.8-3.2 3.6-1 4.4-1.7 6.5-4.8 1.3-2 2.9-4.9 3.7-6.5.7-1.6 3.7-4.9 6.6-7.5 2.9-2.6 5.6-5.1 6.1-5.7.5-.6 2.3-2.6 4.1-4.5 5-5.2 5.3-6 5.4-10.9 0-2.5.4-6.2.8-8.3.4-2.1 1.1-5.8 1.5-8.3.9-5.6 2.2-8 6.8-12.8 2.5-2.6 4.1-5.1 5.2-8.2 1.9-5.4 4.7-10.4 8-14.1 1.7-1.9 2.5-3.6 2.5-5.1 0-2.9 1.6-6.1 5.4-10.7 2.5-3 3.2-4.6 4.1-9.4.7-3.9 1.6-6.4 2.8-7.6 2.5-2.7 3.4-4.8 4.2-9.4.9-5.5.9-26.1 0-30.7-.4-2.1-1-5.3-1.3-7.1-.4-2.5-1-3.6-2.3-4.1-1.2-.5-1.7-1.4-1.7-2.9 0-2.4-1-4.7-3.3-7.2-1.5-1.7-1.6-2.4-1.4-14.5.2-10.5.4-13.4 1.6-16.2.8-1.9 1.6-5.4 1.9-7.7.4-3.6.2-4.8-1.4-8-1.1-2.1-1.9-4.4-1.9-5.2 0-.8-.5-2-1.1-2.8-1.5-1.9-1.4-2.3.4-2.8 2.1-.6 2-5.4-.4-12.5-1-3.1-1.9-6.4-1.9-7.3 0-2.7-2-6.8-6.5-13.5l-4.2-6.1-.5-9.6c-.3-5.3-.9-10.5-1.3-11.5s-1.2-3.4-1.7-5.3-1.4-4.9-2-6.7c-.6-1.9-1.1-3.9-1.1-4.5 0-.6-2.9-7-6.5-14.3-7.5-15.1-14.4-25-21.8-31-16.2-13-19.4-15.5-20.3-15.5-.4 0-1.6-1.1-2.7-2.3-2.3-2.8-5.8-5.4-9.2-7-1.3-.6-4.9-3.4-8-6.2-6.2-5.6-11.6-9.6-14.6-10.9-1.1-.5-3.4-1.8-5.1-3-3.6-2.4-9.5-5.1-11.2-5.1-.6 0-2-.6-3.1-1.4-1.1-.8-2.8-1.6-3.9-1.8-8.7-2.1-11.6-2.9-19.5-5.1-1.4-.4-6-1.4-10.1-2.2s-9.7-2-12.4-2.6c-5.6-1.3-24.1-1.4-53.6-.3-19.7.7-24.2 1.1-25.9 2.6-.6.5-2.5 1.2-4.1 1.4-4.1.6-13.4 4.6-18.4 7.9-2.3 1.5-5 3.1-6 3.6-2 1-3.2 1.7-7.6 4.5-1.5 1-4.5 2.2-6.8 2.8-5.6 1.4-13.8 4.6-16.2 6.3-2.8 1.9-9 4.6-10.8 4.6-3.2 0-9.6 5.2-9.6 7.8 0 .5-.8 2-1.8 3.4s-2 3.4-2.3 4.5c-.4 1.9-7.1 9.3-12.7 14-2.4 2-2.7 2.8-2.8 5.6 0 1.8-.5 5-1.1 7-.6 2-1.1 5.1-1.1 6.7 0 1.9-.7 4.2-1.8 6.1-8.7 14.5-9.3 16.4-11.6 35.2-.8 6.5-2.4 11.9-4.9 16.9-1.8 3.6-1.9 4.6-1.9 14.3 0 5.8-.3 11.1-.7 11.8-1.2 2.2-2.4 30.6-1.5 35.3.4 2.3 1 7.4 1.4 11.3.6 6.6.9 7.8 4.5 14.6 2.8 5.5 3.9 8.2 3.9 10.5 0 2 .8 4.7 2.2 7.5 1.2 2.4 2.2 5 2.3 5.7 0 .7 1.2 5 2.7 9.5 2.2 6.5 3.3 8.9 6 12 1.8 2.1 3.3 4.3 3.3 5 0 2 1.9 5.1 4.8 7.9 1.5 1.4 2.7 3.3 2.7 4.1s1.2 3.4 2.7 5.7c1.5 2.3 3.4 6.5 4.1 9.4.8 2.9 2.1 7.2 2.9 9.6 1.4 4 1.5 6.3 1.5 34.6 0 27-.2 30.9-1.4 35.8-1.4 5.4-2.5 8.2-4.1 10.3-1.5 1.9-4.1 13.8-4.2 18.8-.1 6.8-1 9.3-8.5 22.3-3.6 6.3-6.6 11.7-6.6 12 0 3.5-15.8 20.3-20.5 21.6-1.3.4-2.5 1.3-2.6 2-.2 1.1.5 1.3 4 1.5 4.9.3 6.8 1.9 4.8 4-.9.9-4 1.3-13.5 1.8-11 .6-12.8.8-16.6 2.6-2.4 1.1-5.4 2.2-6.7 2.5-5.9 1.2-16.7 5.5-18.9 7.6-1.3 1.2-4.4 3.3-7 4.5-4.6 2.3-4.7 2.3-16.7 2.3H0v-2.9z"/><path id="path38" class="st1" d="M134.9 490c-1.7-2 .1-3.6 4.3-4.1 3.3-.3 4.2-.8 7.2-4.1 1.9-2.1 5-6.7 6.9-10.4 3.5-6.7 12.2-17 14.3-17 .6 0 3.1-.9 5.6-1.9 5.6-2.4 10.2-2.7 11.4-.9 1.2 1.8-1 4-5 5-5.6 1.4-11.3 4.4-14.1 7.3-1.5 1.6-4.3 5.9-6.2 9.6-1.9 3.7-4.6 7.9-6 9.4-1.4 1.5-3.7 4-5.2 5.5-2.5 2.7-2.8 2.8-7.5 2.8-3.3 0-4.9-.3-5.7-1.2z"/><path id="path36" class="st1" d="M312.4 487.4c-1.2-.4-4-2.5-6.1-4.6-3.1-3.2-4.3-5.1-5.9-9.9-1.4-4.1-1.8-6.1-1.2-6.7 1.3-1.3 3.6 1.5 5 6 1.9 6.1 3.9 8.6 8.9 11.2 6.2 3.1 5.7 5.9-.7 4z"/><path id="path34" class="st1" d="M176.5 415.7c-.3-.7-.1-1.8.4-2.4 5-6.9 5.3-8.4 5.6-24.2.2-12 0-13.4-1.6-18.5-1.3-3.9-1.6-5.7-1-6.3 1.5-1.5 2.8-.1 4.3 4.4 1.3 3.9 1.5 6.2 1.4 20.5-.2 17.8-.7 20.9-5 25.4-2.7 2.7-3.4 2.9-4.1 1.1z"/><path id="path32" class="st1" d="M366 399.1c-4.8-.1-22.9-.7-40.3-1.2l-31.6-.9-2.3-2.2c-1.8-1.7-2.3-2.8-2.3-5.1 0-3.7 1-5.5 3.8-6.9 2-1 6.4-1 43.7 0 22.8.6 45.6 1.3 50.8 1.6 9.3.5 9.4.5 11.8 2.9 3.4 3.4 3.3 6.4-.1 9.8l-2.6 2.6-11.1-.2c-6.2-.1-15.1-.2-19.8-.4z"/><path id="path30" class="st1" d="M344.2 352.7c-24.7-1.3-34-2.1-35.9-2.9-5.6-2.5-5.7-10.6-.1-13.2 2.5-1.2 4.6-1.1 36.7.6 18.7 1 34.3 1.6 34.7 1.2.4-.4-4.6-19.8-11-43.2-6.4-23.4-11.6-43.8-11.6-45.4 0-3.3 2.5-6.4 5.6-7.2 2.6-.7 6.8 1.3 8.1 3.8 2 3.9 26.9 96.5 27 100.3.1 3.2-.2 3.9-2.3 5.8-2.3 2.1-2.6 2.1-10.1 2.1-4.2-.1-22.7-.9-41.1-1.9z"/><path id="path28" class="st1" d="M408.9 250.5c-9.2-2.3-14.1-12.8-9.9-21.5 2.9-6 10.6-9.6 16.9-7.9 9 2.5 13.9 12 10.4 20.2-2.9 7-10.3 10.9-17.4 9.2z"/><path id="path54" class="st1" d="M269.6 248c-6-2.1-10.1-7.9-10.1-14.3 0-4.6 1-7.1 4.3-10.5 5.9-6.1 15.8-6.1 21.4.1 7.1 7.8 5.1 19-4.2 23.7-4 2-7.6 2.4-11.4 1z"/></g></g></svg>