<svg width="702" height="175" xmlns="http://www.w3.org/2000/svg"><g fill="none" fill-rule="evenodd"><path d="M205.27 47.29V.677h-4.865V47.29h4.865zm13.444 0V11.486l15.943 35.806h4.932V.676h-4.932v35.873L218.714.676h-4.932V47.29h4.932zm39.589.474c4.008 0 7.071-1.115 9.188-3.344 2.117-2.23 3.175-5.394 3.175-9.492 0-3.558-.788-6.328-2.364-8.31-1.577-1.982-3.919-3.58-7.027-4.797l-2.77-1.08c-2.567-.991-4.38-2.117-5.438-3.379-1.058-1.26-1.588-2.995-1.588-5.201 0-2.478.586-4.392 1.757-5.743 1.171-1.351 2.928-2.027 5.27-2.027 4.503 0 6.913 2.725 7.228 8.175h4.662c-.18-4.189-1.306-7.33-3.378-9.425C264.946 1.047 262.13 0 258.573 0c-3.738 0-6.677 1.126-8.816 3.378-2.14 2.252-3.21 5.27-3.21 9.053 0 3.198.766 5.742 2.298 7.634 1.531 1.891 3.828 3.445 6.89 4.661l2.703 1.081c2.747 1.126 4.65 2.32 5.709 3.58 1.058 1.262 1.587 3.131 1.587 5.608 0 2.838-.596 4.943-1.79 6.317-1.194 1.374-3.006 2.06-5.438 2.06-2.388 0-4.223-.686-5.506-2.06-1.284-1.374-1.993-3.637-2.129-6.79h-4.796c.09 4.324 1.16 7.612 3.209 9.864 2.05 2.252 5.055 3.378 9.019 3.378zm29.658-.473V5.067h9.593V.676h-24.05v4.39h9.593v42.225h4.864zm19.322 0V.676h-4.865V47.29h4.865zm19.321 0V5.067h9.594V.676h-24.051v4.39h9.593v42.225h4.864zm26.213.54c3.603 0 6.53-1.137 8.783-3.411 2.252-2.275 3.378-5.281 3.378-9.02V.677h-4.932V35.13c0 2.613-.642 4.64-1.926 6.08-1.283 1.442-3.051 2.162-5.303 2.162s-4.02-.709-5.303-2.128c-1.284-1.418-1.926-3.456-1.926-6.114V.676h-4.931V35.4c0 2.432.517 4.594 1.553 6.485 1.036 1.892 2.477 3.356 4.324 4.391 1.847 1.036 3.941 1.554 6.283 1.554zm31.077-.54V5.067h9.593V.676h-24.05v4.39h9.593v42.225h4.864zm34.792 0V42.9H402.81V25.807h13.647v-4.459H402.81V5.067h15.876V.676h-20.74V47.29h20.74zm23.24 0V26.01h13.647v-4.459h-13.647V5.067h15.81V.676h-20.741V47.29h4.931zm35.198.54c3.784 0 6.835-1.182 9.155-3.546 2.32-2.365 3.479-5.89 3.479-10.573V14.255c0-4.774-1.149-8.332-3.446-10.674-2.297-2.342-5.36-3.513-9.188-3.513-3.828 0-6.89 1.17-9.188 3.513-2.297 2.342-3.445 5.9-3.445 10.674v19.457c0 4.684 1.148 8.208 3.445 10.573 2.297 2.364 5.36 3.546 9.188 3.546zm.068-4.459c-5.18 0-7.77-3.197-7.77-9.593V14.728c0-3.468.643-6.035 1.926-7.702 1.284-1.666 3.232-2.5 5.844-2.5 2.477 0 4.369.845 5.675 2.534 1.306 1.689 1.96 4.245 1.96 7.668v19.051c0 3.198-.665 5.596-1.994 7.195-1.329 1.599-3.209 2.398-5.641 2.398zm25.064 3.919V26.888h7.5l7.7 20.403h5.27l-8.242-21.146c4.594-1.531 6.891-5.63 6.891-12.296 0-4.458-.934-7.769-2.804-9.93-1.869-2.162-4.852-3.243-8.951-3.243h-12.296V47.29h4.932zm7.296-24.727h-7.296V5.067h7.296c2.478 0 4.245.732 5.304 2.196 1.058 1.463 1.587 3.659 1.587 6.586 0 2.883-.551 5.056-1.655 6.52-1.103 1.464-2.849 2.195-5.236 2.195zm-304.62 88.311V75.272l9.593 24.794h3.243l9.593-24.997v35.806h4.932V64.26h-4.932l-11.147 28.78-11.282-28.78H200v46.615h4.932zm56.208 0v-4.391h-15.876V89.392h13.647v-4.46h-13.647v-16.28h15.876V64.26H240.4v46.615h20.74zm11.418 0V75.272l9.593 24.794h3.243l9.593-24.997v35.806h4.932V64.26h-4.932L283.84 93.04l-11.282-28.78h-4.932v46.615h4.932zm56.208 0v-4.391H312.89V89.392h13.647v-4.46H312.89v-16.28h15.876V64.26h-20.74v46.615h20.74zm17.295 0V68.651h9.593V64.26h-24.05v4.391h9.593v42.224h4.864zm19.322 0V64.26h-4.864v46.615h4.864zm20.74.54c3.648 0 6.621-1.114 8.918-3.343 2.297-2.23 3.445-5.597 3.445-10.1v-.676h-4.796v.608c0 3.063-.676 5.337-2.027 6.823-1.351 1.487-3.198 2.23-5.54 2.23-5.224 0-7.836-3.198-7.836-9.593V78.312c0-3.513.653-6.091 1.959-7.735 1.306-1.644 3.265-2.466 5.877-2.466 2.297 0 4.133.743 5.506 2.23 1.374 1.485 2.06 3.827 2.06 7.025v.473h4.933v-.608c0-4.549-1.171-7.95-3.513-10.201-2.342-2.252-5.36-3.378-9.053-3.378-3.829 0-6.902 1.182-9.222 3.547-2.32 2.364-3.48 5.911-3.48 10.64v19.457c0 4.684 1.172 8.208 3.514 10.573 2.342 2.364 5.427 3.547 9.255 3.547zm36.82-.54V90.473h7.499l7.701 20.402h5.27L435.17 89.73c4.594-1.53 6.89-5.63 6.89-12.295 0-4.459-.934-7.77-2.803-9.931-1.87-2.162-4.853-3.243-8.952-3.243h-12.295v46.615h4.932zm7.296-24.726h-7.296V68.65h7.296c2.477 0 4.245.732 5.303 2.196 1.059 1.464 1.588 3.66 1.588 6.587 0 2.882-.552 5.055-1.655 6.52-1.104 1.463-2.849 2.195-5.236 2.195zm40.602 24.726v-4.391h-15.876V89.392h13.647v-4.46h-13.647v-16.28h15.876V64.26h-20.74v46.615h20.74zm16.417.473c4.009 0 7.071-1.115 9.188-3.344 2.117-2.23 3.175-5.393 3.175-9.492 0-3.558-.788-6.328-2.364-8.31-1.577-1.981-3.919-3.58-7.026-4.796l-2.77-1.081c-2.567-.991-4.38-2.117-5.439-3.378-1.058-1.261-1.587-2.995-1.587-5.202 0-2.477.585-4.391 1.756-5.743 1.171-1.35 2.928-2.026 5.27-2.026 4.504 0 6.913 2.724 7.229 8.174h4.661c-.18-4.188-1.306-7.33-3.378-9.424-2.072-2.095-4.887-3.142-8.445-3.142-3.738 0-6.677 1.126-8.816 3.378-2.14 2.252-3.209 5.27-3.209 9.053 0 3.198.766 5.743 2.297 7.634 1.531 1.892 3.828 3.446 6.89 4.662l2.703 1.08c2.748 1.127 4.65 2.32 5.709 3.581 1.058 1.261 1.588 3.13 1.588 5.608 0 2.837-.597 4.943-1.79 6.316-1.194 1.374-3.007 2.06-5.44 2.06-2.386 0-4.222-.686-5.505-2.06-1.284-1.373-1.993-3.637-2.128-6.79h-4.797c.09 4.324 1.16 7.612 3.21 9.864 2.048 2.252 5.055 3.378 9.018 3.378zm39.59-.473v-4.391H510.97V89.392h13.647v-4.46H510.97v-16.28h15.876V64.26h-20.74v46.615h20.74zm8.174 0l2.972-11.89h13.647l2.973 11.89h5.202L547.115 64.26h-4.527l-12.7 46.615h5.134zM550.56 94.73h-11.485l5.743-23.038 5.742 23.038zm18.85 16.146V90.473h7.498l7.702 20.402h5.27l-8.243-21.146c4.594-1.53 6.891-5.63 6.891-12.295 0-4.459-.934-7.77-2.804-9.931-1.869-2.162-4.852-3.243-8.951-3.243h-12.296v46.615h4.932zm7.295-24.726h-7.296V68.65h7.296c2.478 0 4.245.732 5.304 2.196 1.058 1.464 1.587 3.66 1.587 6.587 0 2.882-.551 5.055-1.655 6.52-1.103 1.463-2.849 2.195-5.236 2.195zm32.699 25.267c3.648 0 6.62-1.115 8.917-3.344 2.297-2.23 3.446-5.597 3.446-10.1v-.676h-4.797v.608c0 3.063-.675 5.337-2.027 6.823-1.35 1.487-3.197 2.23-5.54 2.23-5.224 0-7.836-3.198-7.836-9.593V78.312c0-3.513.653-6.091 1.96-7.735 1.305-1.644 3.264-2.466 5.877-2.466 2.297 0 4.132.743 5.506 2.23 1.373 1.485 2.06 3.827 2.06 7.025v.473h4.932v-.608c0-4.549-1.171-7.95-3.513-10.201-2.342-2.252-5.36-3.378-9.053-3.378-3.828 0-6.902 1.182-9.222 3.547-2.32 2.364-3.479 5.911-3.479 10.64v19.457c0 4.684 1.171 8.208 3.513 10.573 2.342 2.364 5.427 3.547 9.256 3.547zm24.996-.54V89.323h14.323v21.551h4.931V64.26h-4.931v20.673H634.4V64.26h-4.931v46.615h4.931zm48.44.675c2.116 0 3.997-.462 5.64-1.385 1.645-.923 3.165-2.421 4.56-4.493l1.352 2.23c.676 1.17 1.329 1.97 1.96 2.398.63.428 1.508.642 2.634.642h2.23v-4.594h-.744c-.585 0-1.07-.147-1.452-.44-.383-.292-.8-.821-1.25-1.587l-1.892-3.243 4.797-7.904-3.648-2.365-3.648 6.08-6.35-10.809c2.657-2.837 4.503-5.235 5.539-7.195 1.036-1.959 1.554-3.952 1.554-5.979 0-2.792-.845-5.044-2.534-6.755-1.689-1.712-3.884-2.568-6.587-2.568-2.657 0-4.841.856-6.553 2.568-1.711 1.711-2.567 3.963-2.567 6.755 0 1.577.36 3.21 1.081 4.898.72 1.69 2.004 4.088 3.85 7.195l.339.54c-2.928 3.244-5.033 6.036-6.317 8.378-1.284 2.342-1.925 4.684-1.925 7.026 0 3.198.889 5.765 2.668 7.702 1.78 1.936 4.2 2.905 7.263 2.905zm1.689-29.726c-1.487-2.477-2.478-4.357-2.973-5.641-.495-1.284-.743-2.42-.743-3.412 0-1.531.383-2.747 1.148-3.648.766-.9 1.802-1.351 3.108-1.351s2.33.44 3.074 1.317c.743.879 1.115 2.106 1.115 3.682a8.552 8.552 0 01-.98 3.986c-.653 1.261-1.903 2.95-3.75 5.067zm-1.284 25.064c-1.666 0-2.984-.54-3.952-1.621-.969-1.081-1.453-2.612-1.453-4.594 0-1.667.44-3.322 1.318-4.966.878-1.644 2.375-3.637 4.492-5.979l6.891 11.756c-1.306 2.026-2.522 3.434-3.648 4.222-1.126.788-2.342 1.182-3.648 1.182zm-471.152 67.57c3.783 0 6.823-1.182 9.12-3.546 2.297-2.365 3.446-5.89 3.446-10.573v-18.376c0-4.73-1.149-8.265-3.446-10.607-2.297-2.342-5.337-3.513-9.12-3.513H200v46.616h12.093zm0-4.39h-7.161v-37.833h7.16c2.478 0 4.37.844 5.676 2.533s1.959 4.245 1.959 7.668v17.97c0 3.198-.664 5.608-1.993 7.23-1.329 1.62-3.209 2.431-5.641 2.431zm40.873 4.39v-4.39H237.09v-17.093h13.646v-4.459H237.09v-16.281h15.876v-4.392h-20.74v46.616h20.74zm19.119 0l11.282-46.615h-5.27l-8.377 38.914-8.445-38.914h-5.27l11.35 46.616h4.73zm36.684 0v-4.39h-15.876v-17.093h13.647v-4.459h-13.647v-16.281h15.876v-4.392h-20.74v46.616h20.74zm27.226 0v-4.39h-15.809v-42.225h-4.931v46.616h20.74zm16.146.541c3.784 0 6.835-1.182 9.155-3.547 2.32-2.364 3.479-5.889 3.479-10.573v-19.457c0-4.774-1.149-8.332-3.446-10.674-2.297-2.342-5.36-3.513-9.188-3.513-3.828 0-6.89 1.171-9.188 3.513-2.296 2.342-3.445 5.9-3.445 10.674v19.457c0 4.684 1.149 8.209 3.445 10.573 2.297 2.365 5.36 3.547 9.188 3.547zm.068-4.459c-5.18 0-7.77-3.198-7.77-9.593v-19.052c0-3.468.643-6.035 1.926-7.701 1.284-1.667 3.232-2.5 5.844-2.5 2.477 0 4.369.845 5.675 2.534 1.306 1.688 1.96 4.244 1.96 7.667v19.052c0 3.198-.665 5.596-1.994 7.195-1.329 1.599-3.209 2.398-5.641 2.398zm25.064 3.919v-19.728h7.161c7.972 0 11.958-4.436 11.958-13.309 0-4.503-.957-7.893-2.871-10.167-1.914-2.275-4.943-3.412-9.087-3.412h-12.093v46.616h4.932zm6.891-24.119h-6.89v-18.105h6.89c2.522 0 4.38.72 5.574 2.161 1.193 1.442 1.79 3.784 1.79 7.026 0 3.153-.597 5.428-1.79 6.824-1.194 1.396-3.052 2.094-5.574 2.094zM407 174.46v-35.604l9.593 24.794h3.243l9.593-24.996v35.806h4.932v-46.616h-4.932l-11.147 28.78L407 127.844h-4.932v46.616H407zm56.208 0v-4.392h-15.876v-17.092h13.647v-4.459h-13.647v-16.281h15.876v-4.392h-20.74v46.616h20.74zm11.418 0v-35.806l15.944 35.806h4.931v-46.616h-4.931v35.874l-15.944-35.874h-4.932v46.616h4.932zm39.792 0v-42.224h9.593v-4.392h-24.05v4.392h9.592v42.224h4.865z" fill="#000" fill-rule="nonzero"/><path fill="#498200" d="M175 0v175H0V0z"/><path d="M87.455 28h-.922c-.461 0-.656 1.002-.656 1.002-3.566.748-5.157 4.859-5.735 6.92l-3.95 3.279-1.201.904-.119.03c-.231.062-.79.23-1.544.581a3.971 3.971 0 00-1.28-.214 3.964 3.964 0 00-3.949 4.293l-.161.195c-2.632 3.225-4.996 8.493-4.996 16.996l-.076.312c-.512 2.016-3.61 12.953-9.29 7.058L39.304 52.828l-.02-.245c-.096-1.284-.43-7.303 1.39-10.638a2.294 2.294 0 001.832-2.244 2.291 2.291 0 00-2.286-2.29 2.291 2.291 0 00-2.286 2.29c0 .364.084.71.24 1.015l-.146.245c-1.314 2.245-3.046 6.307-1.394 10.162l-6.086-6.751a2.33 2.33 0 00.208-.95 2.291 2.291 0 00-2.286-2.29 2.291 2.291 0 00-2.287 2.29c0 1.216.949 2.211 2.15 2.283L34.18 52.6l-.299.153c-1.075.54-4.805 2.302-7.1 1.987a2.288 2.288 0 00-2.207-1.698 2.291 2.291 0 00-2.287 2.29 2.291 2.291 0 002.287 2.29c.734 0 1.39-.345 1.805-.885l.311.034c1.912.198 5.721.433 8.607-.372l13.83 17.867.057.164c.603 1.67 5.923 15.285 15.778 5.417l-.081.248c-.687 2.155-5.285 17.875 3.426 27.22l-.334-.176c-2.885-1.499-23.453-11.711-22.414 2.408l.175.476c1.03 2.764 6.449 16.65 11.868 18.062l.011.1c.063.73.094 4.94-8.93-3.899l-4.462-3.35-4.06-9.756a2.291 2.291 0 00-.922-4.384 2.291 2.291 0 00-2.286 2.29c0 .695.312 1.32.799 1.736v2.966l-3.982-3.987c.514-.423.845-1.06.845-1.776a2.291 2.291 0 00-2.287-2.29 2.291 2.291 0 00-.922 4.385l2.111 6.348-7.379-5.334a2.291 2.291 0 00-2.234-2.771 2.291 2.291 0 00-2.287 2.29 2.291 2.291 0 002.287 2.29c.15 0 .299-.013.442-.046l6.495 6.92-7.47 2.889a2.256 2.256 0 00-1.085-.273 2.291 2.291 0 00-2.286 2.29 2.291 2.291 0 002.286 2.289 2.291 2.291 0 002.287-2.29c0-.052 0-.11-.007-.162l.2-.088c2.417-1.051 7.095-2.75 9.193-1.207l8.697 6.557.379.42c3.274 3.602 26.713 28.752 28.168 12.134l-2.676-15.63.22.151c1.63 1.11 11.83 7.814 14.63 3.784l.09-.137s-.741 4.91 3.533 6.25c4.274-1.34 3.533-6.25 3.533-6.25 2.897 4.69 14.94-3.799 14.94-3.799l-2.676 15.63c1.559 17.868 28.547-12.553 28.547-12.553l8.697-6.557c2.163-1.587 7.048.254 9.393 1.295l-.007.162a2.291 2.291 0 002.287 2.29 2.291 2.291 0 002.286-2.29 2.294 2.294 0 00-2.286-2.283c-.39 0-.76.098-1.084.273l-7.47-2.888 6.496-6.92c.142.026.292.045.441.045a2.291 2.291 0 002.287-2.29 2.291 2.291 0 00-2.287-2.29 2.291 2.291 0 00-2.234 2.772l-7.379 5.333 2.111-6.348a2.298 2.298 0 001.364-2.094 2.291 2.291 0 00-2.286-2.29 2.291 2.291 0 00-2.287 2.29c0 .715.332 1.352.845 1.775l-3.982 3.988v-2.966c.487-.423.799-1.041.799-1.737a2.291 2.291 0 00-2.286-2.29 2.291 2.291 0 00-.923 4.384l-4.06 9.757-4.462 3.35c-9.814 9.6-8.924 3.799-8.924 3.799 6.02-1.562 12.042-18.539 12.042-18.539 1.117-15.188-22.747-2.23-22.747-2.23 9.366-10.05 3.345-27.47 3.345-27.47 10.483 10.499 15.835-5.58 15.835-5.58l13.83-17.868c3.052.852 7.138.533 8.917.338.416.54 1.072.885 1.806.885a2.291 2.291 0 002.286-2.29 2.291 2.291 0 00-2.286-2.29 2.288 2.288 0 00-2.208 1.698c-2.702.371-7.405-2.14-7.405-2.14l5.846-6.895a2.291 2.291 0 002.15-2.283 2.291 2.291 0 00-2.287-2.29 2.291 2.291 0 00-2.078 3.24l-6.08 6.745c1.715-4-.214-8.222-1.54-10.407.15-.306.241-.65.241-1.015a2.291 2.291 0 00-2.286-2.29 2.291 2.291 0 00-2.287 2.29c0 1.106.786 2.03 1.832 2.244 2.046 3.754 1.364 10.883 1.364 10.883l-14.27 16.528c-6.242 6.478-9.366-7.37-9.366-7.37 0-8.683-2.462-13.985-5.158-17.191a3.964 3.964 0 00-3.95-4.293c-.447 0-.876.071-1.279.214l-.184-.084c-.901-.401-1.472-.527-1.472-.527l-1.208-.904-3.95-3.278-.075-.261c-.64-2.13-2.238-5.943-5.66-6.66l-.015-.069c-.054-.226-.253-.933-.64-.933z" fill="#FFF"/></g></svg>